<svg width="97" height="97" viewBox="0 0 97 97" fill="none" xmlns="http://www.w3.org/2000/svg">
<circle cx="48.5" cy="48.5" r="48" stroke="#0F2992"/>
<path d="M57.024 23.2899C47.7583 20.4887 39.2385 22.2788 31.6967 28.3786C28.5142 30.9478 26.1439 34.18 24.4532 37.8929C24.3371 38.1416 24.1548 38.3736 23.9559 38.6554C23.9393 38.788 23.9559 39.0201 23.873 39.219C22.8785 41.7716 22.2652 44.4071 22.0829 47.1421C22.0829 47.2415 22.0332 47.341 22 47.4404V50.7058C22.1492 51.7169 22.2486 52.728 22.431 53.7225C24.2708 64.4469 32.658 73.1656 43.2664 75.3701C44.5095 75.6353 45.8024 75.7348 47.0622 75.9171C47.1782 75.9337 47.2942 75.9668 47.4102 76H50.5762C51.3221 75.9005 52.0679 75.8177 52.8138 75.7182C64.0023 74.0772 72.9365 65.8061 75.3565 54.8331C78.3898 41.1583 70.4502 27.3343 57.024 23.2899ZM61.0519 26.92C62.8918 27.9476 64.5825 29.1576 66.124 30.5831C66.2234 30.6826 66.3229 30.7655 66.4721 30.9146C66.0245 31.213 65.6599 31.4948 65.2621 31.7103C65.0963 31.8097 64.8642 31.8429 64.6819 31.8097C62.61 31.3953 60.538 31.0472 58.5655 30.2848C58.2672 30.1687 57.8694 30.1853 57.5544 30.2516C56.8085 30.4008 56.0626 30.55 55.3665 30.7986C54.5211 31.1136 53.8084 30.8152 53.0128 30.4837C53.3443 29.8207 53.6592 29.1742 53.9907 28.5443C54.0404 28.4449 54.2062 28.4117 54.3222 28.3454C54.3554 28.3289 54.3885 28.3454 54.4217 28.3454C56.5433 28.6438 58.4329 28.0139 60.2065 26.9034C60.4883 26.7045 60.7369 26.7376 61.0519 26.92ZM26.0776 38.6554C28.7628 32.8871 32.9896 28.677 38.7744 26.0083C39.0396 25.8757 39.2551 25.8591 39.4872 26.058C40.8298 27.2349 42.4376 27.6824 44.1614 27.8316C44.7747 27.8813 45.3715 28.0305 46.0013 28.1465C45.8687 28.5278 45.7858 28.8593 45.6532 29.1908C45.6035 29.3234 45.4543 29.4063 45.3383 29.4892C45.272 29.5389 45.1725 29.572 45.0897 29.572C43.515 29.8207 42.4873 30.6992 41.8574 32.1578C40.9955 34.1469 39.4871 35.4563 37.5975 36.5172C36.2715 37.2631 34.8957 37.5283 33.4702 37.7272C32.3928 37.8764 31.3154 38.0255 30.238 38.1913C29.4424 38.3073 29.1938 38.6057 29.1938 39.4344C29.1938 40.114 29.2103 40.8102 29.1938 41.4898C29.1772 41.9539 29.3098 42.3517 29.6745 42.6667C29.8568 42.8324 30.006 43.0479 30.2049 43.1805C31.0005 43.7441 31.1663 44.5065 30.9342 45.4845C29.7408 44.6889 28.5639 43.9098 27.4036 43.1308C27.2876 43.0479 27.2213 42.8822 27.1716 42.733C26.7737 41.5893 26.3925 40.4456 26.0278 39.2853C25.9781 39.1029 25.9947 38.8377 26.0776 38.6554ZM43.515 62.9551C43.2498 63.4689 42.537 63.7673 42.0232 64.1651C41.5591 64.5132 41.1115 64.8778 40.6309 65.2093C40.1999 65.5077 40.001 65.8889 40.0176 66.4028C40.0341 67.3642 40.0176 68.3255 40.0176 69.3201C39.338 69.1875 38.907 68.9886 38.5921 68.309C37.5644 66.1541 37.1334 63.933 37.2992 61.5462C37.4152 59.872 37.3158 58.1813 37.3158 56.4906C37.3158 55.7116 37.1169 55.4464 36.3544 55.2972C35.2272 55.0651 34.0835 54.8662 32.9564 54.601C32.7409 54.5513 32.5089 54.3524 32.3763 54.1701C32.1276 53.7723 31.9784 53.3081 31.7132 52.9103C31.0668 51.9324 30.901 50.8715 31.0171 49.7444C31.0336 49.5787 31.0668 49.3798 31.1662 49.2637C32.2105 48.2029 33.2548 47.1421 34.3653 46.0315C34.7466 46.7774 35.1112 47.457 35.4262 48.1532C35.7079 48.783 36.1223 49.0482 36.8185 49.0317C38.4263 48.9985 40.0507 49.0317 41.6585 49.0151C42.0563 49.0151 42.2884 49.1145 42.4873 49.4792C43.1172 50.5732 43.8134 51.634 44.4101 52.7446C44.7416 53.3413 45.1891 53.5899 45.8687 53.5402C46.5152 53.507 47.1616 53.5402 47.9075 53.5402C47.7252 54.4684 47.576 55.3304 47.3771 56.1923C47.3108 56.4906 47.1285 56.8056 46.913 57.0376C45.9847 57.999 45.0399 58.9438 44.0951 59.872C43.7802 60.187 43.6144 60.5351 43.6144 60.9992C43.631 61.6456 43.7802 62.4081 43.515 62.9551ZM38.1943 71.7567C26.608 66.2204 21.4033 53.3247 24.9339 41.7219C25.1659 42.418 25.3317 43.0313 25.5969 43.6115C25.7461 43.9596 25.9947 44.3242 26.2931 44.5397C27.6522 45.5011 29.0612 46.3962 30.5364 47.3907C30.2214 47.689 29.8899 47.9045 29.691 48.2029C29.4755 48.5344 29.3595 48.9488 29.2103 49.3134C29.2103 49.33 29.2103 49.3466 29.2103 49.3632C28.912 51.3357 29.7242 52.9932 30.5695 54.7005C31.0834 55.7447 31.7132 56.3249 32.8735 56.4409C33.7354 56.5238 34.5974 56.7724 35.5256 56.9548V57.5183C35.5256 59.9383 35.5256 62.3749 35.5422 64.795C35.5422 65.1762 35.6251 65.5574 35.7577 65.9221C36.2384 67.1984 36.7853 68.4581 37.266 69.7345C37.4484 70.2152 37.7467 70.5135 38.244 70.6627C38.9899 70.8782 39.7026 71.1434 40.4485 71.392C41.3105 71.6738 41.8243 71.3091 41.8409 70.3975C41.8575 69.2703 41.8575 68.1432 41.8409 67.0326C41.8409 66.7011 41.9237 66.4857 42.2055 66.2868C43.084 65.6569 43.946 64.9773 44.8245 64.3308C45.272 64.0159 45.5206 63.6181 45.4377 63.0877C45.1891 61.629 45.7195 60.5351 46.8632 59.64C47.46 59.1759 47.9738 58.6123 48.4711 58.0322C48.7363 57.7172 48.9849 57.3194 49.0844 56.9216C49.3827 55.6619 49.6148 54.3855 49.8634 53.1092C50.0457 52.1313 49.7142 51.7335 48.7031 51.7335C47.9572 51.7335 47.2279 51.7003 46.482 51.75C46.0676 51.7666 45.8521 51.6174 45.6532 51.2694C45.0234 50.1754 44.3438 49.1145 43.7139 48.004C43.399 47.457 43.0012 47.2084 42.3547 47.2249C40.6972 47.2581 39.0562 47.2249 37.3986 47.2415C37.1003 47.2415 36.918 47.1586 36.7853 46.8768C36.3875 46.0315 35.9731 45.2027 35.5422 44.374C35.0946 43.512 34.4979 43.4126 33.7852 44.0922C33.5034 44.374 33.2382 44.6723 32.9564 44.9707C32.9067 44.9541 32.8569 44.9375 32.8072 44.9209C32.8072 44.6226 32.7906 44.3242 32.8072 44.0259C32.8404 43.4954 32.6912 43.0645 32.2768 42.7164C32.0779 42.5506 31.9287 42.302 31.7132 42.1694C30.9839 41.6887 30.9176 40.976 31.0171 40.2301C31.0336 40.0975 31.216 39.8986 31.3486 39.882C32.857 39.6499 34.3653 39.4676 35.8737 39.219C36.3875 39.1361 36.9014 38.9703 37.3489 38.7217C38.6252 38.009 39.8684 37.2465 41.095 36.484C41.3768 36.3017 41.642 36.0365 41.8243 35.7547C42.5536 34.5778 43.2498 33.3678 43.9957 32.2075C44.1449 31.9755 44.4101 31.7931 44.6587 31.6771C45.2057 31.4451 45.7858 31.2959 46.3494 31.1136C46.7969 30.9644 47.0953 30.6992 47.2445 30.2351C47.4765 29.4726 47.7583 28.7101 48.007 27.9311C48.2556 27.152 47.9904 26.7045 47.1948 26.5553C45.8024 26.3067 44.3935 26.1078 42.9846 25.8425C42.421 25.7265 41.8906 25.4945 41.211 25.2624C44.4266 23.2568 53.6426 23.5551 58.5158 25.7762C57.7533 26.058 57.2229 26.5884 56.4439 26.5719C55.5157 26.5553 54.5874 26.5719 53.6426 26.5719C53.1619 26.5719 52.847 26.7708 52.6315 27.1852C52.0845 28.2791 51.521 29.3731 50.9905 30.4837C50.6259 31.2296 50.8579 31.644 51.637 31.9921C53.4271 32.8208 55.2173 32.97 57.0738 32.2075C57.6705 31.9589 58.234 32.0915 58.8473 32.2573C60.8861 32.7877 62.9249 33.2518 64.9803 33.6993C65.2455 33.7656 65.6101 33.6164 65.8588 33.4673C66.4886 33.1026 67.0854 32.6551 67.7815 32.2075C68.6766 33.401 69.5551 34.5778 70.4833 35.821C69.9861 36.0033 69.5883 36.1359 69.1739 36.2851C68.9252 36.368 68.66 36.4177 68.428 36.5337C66.7704 37.3625 65.0797 37.3625 63.3227 36.8984C63.0575 36.8321 62.7757 36.7492 62.4939 36.7492C61.516 36.7658 60.9856 36.2354 60.4717 35.4563C59.1457 33.4175 59.7424 33.7988 57.3555 33.7656C56.1621 33.7491 54.9687 33.7325 53.7752 33.7822C53.4106 33.7988 52.9796 33.9645 52.6978 34.2132C51.8691 34.9591 51.1231 35.7713 50.3275 36.5337C50.0126 36.8321 49.8634 37.1802 49.9131 37.6111C50.2115 39.6665 50.4767 41.7219 50.8082 43.7607C50.8579 44.0259 51.1397 44.3739 51.4049 44.49C53.4437 45.4016 55.4825 46.2801 57.5379 47.1255C57.7699 47.2249 58.0849 47.2249 58.3501 47.1586C59.2617 46.9597 60.1568 46.7111 61.0685 46.5122C61.2674 46.479 61.516 46.5122 61.6817 46.6116C62.2453 46.9597 62.9912 47.2415 63.273 47.7719C63.5548 48.2692 63.4056 49.0317 63.3559 49.6781C63.2896 50.6229 63.5216 51.4517 63.9692 52.297C64.9305 54.1203 65.8256 55.9602 66.7373 57.8001C66.8864 58.0985 66.9528 58.4631 66.9693 58.7946C67.0025 59.64 67.0025 60.4853 66.9693 61.3307C66.9528 61.8114 67.1019 62.176 67.45 62.491C68.0136 63.0214 68.5606 63.5684 69.1076 64.0988C62.4111 73.265 49.4822 77.1437 38.1943 71.7567ZM70.1518 62.607C69.7374 62.1926 69.3396 61.7948 68.9418 61.3638C68.8589 61.281 68.8424 61.1484 68.8092 61.0323C68.7926 60.9495 68.7926 60.85 68.8092 60.7671C69.0578 58.7118 68.5274 56.8719 67.4832 55.1149C66.7207 53.822 66.1074 52.4296 65.461 51.0704C65.3118 50.7721 65.2455 50.4074 65.2289 50.0759C65.1957 49.1974 65.2123 48.3189 65.2289 47.4404C65.2289 46.9597 65.0466 46.6116 64.6322 46.3464C63.8697 45.8657 63.1238 45.3685 62.3945 44.8546C61.9635 44.5563 61.5491 44.49 61.0519 44.6226C60.2065 44.8546 59.3612 45.0701 58.4993 45.2525C58.2506 45.3022 57.9357 45.2856 57.7036 45.1861C56.0958 44.5231 54.5046 43.827 52.9133 43.1474C52.6315 43.0313 52.5155 42.8987 52.4823 42.5838C52.2834 41.0588 52.0514 39.5339 51.8525 37.9924C51.8193 37.8101 51.9685 37.5946 52.0182 37.3957C52.0182 37.3791 52.0348 37.3625 52.0514 37.3625C52.6647 36.7658 53.1785 35.937 53.9244 35.6221C54.6372 35.3237 55.582 35.5226 56.4273 35.5226C57.0903 35.5226 57.8694 35.3237 58.3998 35.6055C58.9136 35.8873 59.2286 36.6166 59.5601 37.1968C59.9579 37.9095 60.5049 38.241 61.3005 38.357C62.7923 38.5559 64.2841 38.8543 65.7759 39.0698C66.0908 39.1195 66.4389 39.0532 66.7538 38.9538C68.2788 38.4565 69.8037 37.9427 71.3618 37.4288C75.6383 45.5342 74.909 55.4961 70.1518 62.607Z" fill="#0F2992"/>
</svg>
