<svg width="97" height="97" viewBox="0 0 97 97" fill="none" xmlns="http://www.w3.org/2000/svg">
<circle cx="48.5" cy="48.5" r="48" stroke="#0F2992"/>
<path d="M73.824 38.6539C70.4338 33.1559 63.7124 30.6059 57.5805 32.4779C54.4409 33.436 51.9056 35.2342 50.0189 37.9022C47.5573 41.3956 46.8645 45.2722 47.7784 49.4878H45.42C43.4006 49.4878 42.4278 50.4607 42.4278 52.5095C42.4278 53.2613 42.4425 54.013 42.4278 54.7795C42.4131 55.3691 42.1183 55.6639 41.5434 55.6786C40.3642 55.6934 39.185 55.6934 38.0058 55.6786C37.4457 55.6786 37.1509 55.3691 37.1361 54.8237C37.1214 53.6887 37.1214 52.539 37.1361 51.404C37.1361 51.2566 37.2541 51.065 37.3867 50.9913C38.4333 50.4312 38.9049 49.5468 38.9049 48.3823C38.9049 48.176 38.9344 47.9254 39.0671 47.778C39.6125 47.1589 39.8188 46.4514 39.7893 45.6407C39.7746 45.1395 39.7599 44.6384 39.8041 44.1519C39.8188 43.9751 39.9515 43.7392 40.0989 43.6508C43.2827 41.6314 44.5946 38.7571 44.0787 35.0574C43.5333 31.0923 39.5682 27.9527 35.6621 28.3359C32.3456 28.6749 29.5892 30.9154 28.6459 34.0403C27.673 37.2831 28.7343 40.7912 31.3286 42.899C31.7855 43.2675 32.4341 43.5476 32.6552 44.0193C32.891 44.5205 32.6404 45.2132 32.7289 45.8176C32.8173 46.3924 32.9795 46.9968 33.2595 47.5127C33.4511 47.8664 33.6133 48.1465 33.6133 48.5592C33.5985 49.6205 34.085 50.4459 35.0283 50.9471C35.2936 51.0945 35.3821 51.2419 35.3821 51.5367C35.3673 52.6275 35.3673 53.7035 35.3821 54.7942C35.3968 56.3419 36.4728 57.4474 38.0058 57.4622C39.1997 57.4769 40.3937 57.4769 41.5876 57.4622C43.0911 57.4474 44.1819 56.3419 44.1966 54.8237C44.2113 53.9393 44.1966 53.0549 44.1966 52.1705C44.2113 51.5809 44.5061 51.2861 45.081 51.2714C46.0538 51.2566 47.0267 51.2566 47.9995 51.2714C48.1469 51.2714 48.3533 51.3746 48.4122 51.4925C48.8839 52.3769 49.3261 53.2908 49.6946 54.0278C47.5278 56.224 45.3758 58.4055 43.2238 60.6018C43.1795 60.5723 43.1206 60.4986 43.0469 60.4397C42.192 59.6142 41.9266 59.6142 41.0865 60.4397C38.3006 63.2108 35.5 65.9966 32.7141 68.7678C31.5939 69.888 31.4317 71.2441 32.4488 72.4675C33.3037 73.4993 34.2618 74.4574 35.2789 75.3123C36.5023 76.3441 37.8879 76.182 39.0229 75.047C40.2168 73.8531 41.4107 72.6444 42.6047 71.4505C44.2556 69.7996 45.9064 68.1487 47.5573 66.4831C48.088 65.9377 48.088 65.5102 47.5573 64.9648C47.4099 64.8174 47.2625 64.6553 47.1741 64.5669C49.3703 62.3706 51.5224 60.2038 53.6892 58.0518C59.8652 62.1053 67.4711 60.7345 71.9668 56.0324C76.4625 51.3303 77.229 44.1814 73.824 38.6539ZM35.3673 46.2598V46.8052C34.7335 46.702 34.4977 46.4514 34.4829 45.8471C34.4682 45.0953 34.4387 44.3436 34.4829 43.5918C34.5271 42.9138 34.2618 42.5305 33.6427 42.221C29.8251 40.349 28.8228 35.3079 31.6676 32.1831C33.3774 30.3111 35.5 29.6183 37.9616 30.4143C40.3642 31.1807 41.8677 32.8611 42.2951 35.3669C42.811 38.3886 41.4402 40.9828 38.6838 42.3684C38.1974 42.619 37.9763 42.958 37.9911 43.5034C38.0205 44.3288 38.0058 45.1543 37.9911 45.9797C37.9763 46.5398 37.6963 46.8052 37.1067 46.8346V45.1838C37.1067 43.2675 37.1214 41.3661 37.0919 39.4499C37.0919 39.0224 37.1656 38.7718 37.5783 38.5507C38.6101 37.9906 39.0671 36.7819 38.7723 35.6617C38.4627 34.4972 37.5046 33.716 36.2959 33.6571C35.1904 33.5981 34.1144 34.3204 33.7312 35.3964C33.289 36.6051 33.7459 37.9611 34.8809 38.5802C35.2494 38.7866 35.3378 39.0077 35.3378 39.3909C35.3526 41.6609 35.3673 43.9603 35.3673 46.2598ZM36.2222 37.1504C35.7358 37.1504 35.3526 36.7525 35.3526 36.266C35.3673 35.7944 35.78 35.3964 36.2517 35.3964C36.7234 35.4111 37.1214 35.8238 37.1214 36.2955C37.1066 36.7819 36.7087 37.1652 36.2222 37.1504ZM36.2665 49.4731C35.7948 49.5173 35.4853 49.2078 35.3821 48.6182H37.0919C37.0624 49.1488 36.7676 49.4289 36.2665 49.4731ZM45.5232 66.0998C42.9437 68.6646 40.3789 71.2441 37.7994 73.8089C37.313 74.2953 36.9298 74.3837 36.4139 73.912C35.5295 73.1161 34.6745 72.2759 33.8786 71.3915C33.4069 70.8756 33.4954 70.5071 33.9965 70.0059C36.6645 67.3232 39.3471 64.6553 42.0151 61.9726C43.3122 63.255 44.5504 64.4932 45.8327 65.7608C45.7296 65.864 45.6411 65.9819 45.5232 66.0998ZM45.818 63.1076C45.4642 62.7391 45.0663 62.3411 44.7125 62.0021C46.8056 59.909 48.9134 57.7865 50.9917 55.7081C51.3308 56.0619 51.7287 56.4599 52.0825 56.8284C50.0189 58.8772 47.9258 60.9998 45.818 63.1076ZM65.2895 58.155C59.5115 59.8943 53.2027 57.1674 50.5053 51.7725C50.4316 51.6251 50.3727 51.4777 50.2695 51.2419C53.4828 51.2419 56.6077 51.2566 59.7326 51.2272C60.3222 51.2272 60.9413 51.0945 61.4719 50.8439C62.2679 50.4607 62.6658 49.7089 62.71 48.8245C62.7543 48.1907 62.7395 47.5422 62.71 46.8936C62.6953 46.3335 62.3416 45.9502 61.8404 45.9502C61.3392 45.9502 60.9707 46.3187 60.956 46.8789C60.9413 47.4537 60.956 48.0138 60.9412 48.5887C60.9265 49.1636 60.6317 49.4731 60.0421 49.4731C56.6519 49.4878 53.2764 49.4731 49.8862 49.4878C49.562 49.4878 49.503 49.3257 49.444 49.0751C47.8521 42.958 51.4634 36.3545 57.5658 34.2614C65.1569 31.6524 73.1902 36.664 74.163 44.6384C74.9148 50.667 71.1561 56.4009 65.2895 58.155Z" fill="#0F2992"/>
<path d="M37.1214 24.7541C37.1214 25.0636 37.1361 25.3879 37.1214 25.6974C37.0771 26.1838 36.7086 26.5229 36.2517 26.5229C35.7948 26.5229 35.3968 26.1838 35.3821 25.6974C35.3526 25.0783 35.3526 24.4445 35.3821 23.8254C35.3968 23.339 35.78 23 36.2517 23C36.7086 23 37.0919 23.3243 37.1361 23.8107C37.1361 24.135 37.1214 24.4445 37.1214 24.7541Z" fill="#0F2992"/>
<path d="M24.725 35.3519C24.4302 35.3519 24.1354 35.3666 23.8406 35.3519C23.3542 35.3076 23.0152 34.9539 23.0004 34.4969C22.9857 34.0105 23.3395 33.6273 23.8554 33.5978C24.4597 33.5683 25.064 33.5683 25.6684 33.5978C26.1548 33.6125 26.5086 33.9958 26.5086 34.4527C26.5233 34.9391 26.1695 35.3076 25.6536 35.3519C25.3588 35.3666 25.0346 35.3519 24.725 35.3519Z" fill="#0F2992"/>
<path d="M47.6605 35.3518C47.3657 35.3518 47.0709 35.3665 46.7761 35.3518C46.2897 35.3075 45.9506 34.939 45.9506 34.4821C45.9506 34.0252 46.2749 33.6272 46.7613 33.6124C47.3804 33.583 48.0142 33.583 48.6333 33.6124C49.1197 33.6419 49.4588 34.0104 49.4588 34.4821C49.4588 34.939 49.1197 35.3223 48.6333 35.3665C48.3238 35.3812 47.9995 35.3518 47.6605 35.3518Z" fill="#0F2992"/>
<path d="M29.6924 27.982C29.5302 28.1884 29.3829 28.5127 29.147 28.6011C28.8817 28.7043 28.4542 28.6895 28.2479 28.5274C27.732 28.1294 27.2603 27.643 26.8328 27.1418C26.5233 26.7881 26.5528 26.3459 26.8918 25.9921C27.2161 25.6531 27.6435 25.5941 27.9825 25.8742C28.5279 26.3311 29.0144 26.8765 29.5008 27.3924C29.5892 27.5251 29.6039 27.7167 29.6924 27.982Z" fill="#0F2992"/>
<path d="M45.8475 26.4199C45.8475 27.1716 44.2998 28.7783 43.7396 28.7193C43.4743 28.6898 43.1058 28.4982 43.0026 28.2771C42.8847 28.0265 42.8847 27.5843 43.0469 27.378C43.4596 26.8473 43.946 26.3462 44.4766 25.9334C44.683 25.7713 45.1252 25.7713 45.3905 25.8745C45.6264 25.9629 45.759 26.3019 45.8475 26.4199Z" fill="#0F2992"/>
<path d="M66.2182 39.9954C66.0708 40.467 65.7318 40.6587 65.2601 40.6587C64.4346 40.6587 63.6092 40.6587 62.7248 40.6587C62.7248 41.5431 62.7248 42.3538 62.7248 43.1645C62.7248 43.7983 62.3563 44.1963 61.8256 44.1963C61.3097 44.1815 60.9707 43.7983 60.9707 43.194C60.956 42.3685 60.9707 41.5431 60.9707 40.6734C60.1306 40.6734 59.3493 40.6734 58.5681 40.6734C57.8606 40.6734 57.4626 40.3639 57.4479 39.8185C57.4331 39.2584 57.8458 38.9193 58.5828 38.9193C59.3493 38.9193 60.1158 38.9193 60.9707 38.9193V37.0031C60.9707 36.7968 60.9707 36.5904 60.9707 36.3988C60.9855 35.7945 61.3245 35.4112 61.8404 35.3965C62.3563 35.3965 62.7248 35.7797 62.7248 36.3693C62.7395 37.1948 62.7248 38.0202 62.7248 38.9193C63.5945 38.9193 64.4346 38.9046 65.2601 38.9193C65.9529 38.9046 66.3951 39.4205 66.2182 39.9954Z" fill="#0F2992"/>
</svg>
