<svg width="97" height="97" viewBox="0 0 97 97" fill="none" xmlns="http://www.w3.org/2000/svg">
<circle cx="48.5" cy="48.5" r="48" stroke="#0F2992"/>
<path d="M57.2693 41.155C57.2182 37.7792 54.405 34.6848 51.0548 34.3779C48.8682 34.1733 46.6561 34.1733 44.4567 34.3012C40.7484 34.5313 37.8202 37.5747 37.7563 41.2829C37.6668 45.9246 37.7307 50.5663 37.7179 55.208C37.7179 55.2847 37.7435 55.3614 37.7563 55.4893H41.0042V70.9744H42.5898V52.267H40.9658V53.827H39.3802C39.3674 53.7247 39.3547 53.6608 39.3547 53.5968C39.3547 49.5561 39.3291 45.5282 39.3674 41.4875C39.393 38.7894 41.1576 36.5261 43.8173 36.0658C46.2469 35.6438 48.7659 35.631 51.1955 36.0658C53.9575 36.5517 55.6581 38.8917 55.6709 41.7688C55.6837 45.6305 55.6709 49.4922 55.6709 53.3539C55.6709 53.5073 55.6581 53.6608 55.6454 53.827H54.0214V52.267H52.4358V70.9872H54.047V55.4893H57.2693C57.2821 55.3614 57.3077 55.2719 57.3077 55.1696C57.2949 50.5024 57.346 45.8223 57.2693 41.155ZM35.5825 40.7842C33.3703 40.7842 31.1454 40.7714 28.9332 40.7842C25.4679 40.797 23.0128 43.2777 23.0128 46.743C23.0128 50.5663 23.0128 54.4024 23.0128 58.2257V58.7756H26.2991V70.9616H27.8591V55.5277H26.2607V57.0877H24.6496C24.6496 53.5073 24.6368 49.9653 24.6623 46.4233C24.6623 45.5666 24.9437 44.761 25.4807 44.0705C26.3758 42.8941 27.5778 42.4082 29.0227 42.4082C31.1965 42.4082 33.3575 42.4082 35.5313 42.4082H36.0684V40.7842H35.5825ZM63.8546 30.171C61.1949 30.1582 58.9444 32.3959 58.9444 35.0684C58.9444 37.7409 61.1694 39.9786 63.8291 39.9786C66.4888 39.9914 68.7393 37.7537 68.7393 35.0812C68.7521 32.4215 66.5271 30.1837 63.8546 30.171ZM63.8291 38.3419C62.0389 38.3163 60.5939 36.8458 60.5939 35.0684C60.6067 33.2782 62.0645 31.8205 63.8419 31.8205C65.6193 31.8205 67.1025 33.291 67.1153 35.0684C67.1281 36.833 65.5937 38.3674 63.8291 38.3419ZM31.171 30.171C28.5112 30.171 26.2735 32.4087 26.2607 35.0684C26.2607 37.7281 28.5112 39.9786 31.1582 39.9786C33.8307 39.9786 36.0556 37.7537 36.0556 35.0812C36.0684 32.3959 33.8434 30.171 31.171 30.171ZM31.1965 38.3419C29.4191 38.3674 27.8847 36.8458 27.8975 35.0684C27.9103 33.291 29.3936 31.8205 31.171 31.8205C32.9484 31.8205 34.4189 33.2782 34.4317 35.0684C34.4444 36.8458 32.9995 38.3035 31.1965 38.3419ZM36.0684 57.1005V55.5149H34.47V70.9872H36.094V58.75H39.3163V57.1133H36.0684V57.1005ZM58.9316 55.5277V57.1516H55.6965V58.7756H58.9444V70.9872H60.5428V55.5277H58.9316ZM46.7328 55.5149V70.9744H48.3056V55.5149H46.7328ZM30.3909 58.8011V70.9872H31.9637V58.8011H30.3909ZM63.0491 58.7756V70.9872H64.6219V58.7756H63.0491Z" fill="white"/>
<path d="M72.0127 58.7629C70.9514 58.7629 69.8773 58.7629 68.7648 58.7629C68.7648 62.8547 68.7648 66.9082 68.7648 70.9873C68.2149 70.9873 67.7035 70.9873 67.1664 70.9873C67.1664 65.8597 67.1664 60.7193 67.1664 55.5405C67.6651 55.5405 68.1766 55.5405 68.752 55.5405C68.752 56.052 68.752 56.5763 68.752 57.1133C69.3146 57.1133 69.8133 57.1133 70.3632 57.1133C70.376 56.9727 70.3887 56.8448 70.3887 56.7041C70.3887 53.3667 70.4015 50.0421 70.3887 46.7047C70.3887 44.6332 69.2379 43.0987 67.2815 42.5745C66.8595 42.4594 66.3992 42.4338 65.9644 42.421C63.829 42.4082 61.6936 42.4082 59.5581 42.4082C59.3791 42.4082 59.2129 42.4082 58.9955 42.4082C58.9955 41.8584 58.9955 41.3469 58.9955 40.7715C59.1745 40.7715 59.3407 40.7715 59.5197 40.7715C61.668 40.7715 63.829 40.7715 65.9772 40.7715C69.1484 40.7715 71.3094 42.5361 71.9615 45.6561C71.9743 45.7201 72.0127 45.7712 72.0383 45.8352C72.0127 50.1444 72.0127 54.4536 72.0127 58.7629Z" fill="#0F2992"/>
<path d="M50.9652 23.1636C50.1341 22.5243 49.175 22.2174 48.1777 22H46.835C46.7455 22.0256 46.656 22.0639 46.5665 22.0895C43.5615 22.5882 41.49 25.3374 41.8353 28.3807C42.1294 30.9509 44.1497 33.0352 46.6944 33.3805C49.2773 33.7385 51.7708 32.3191 52.7682 29.9408C53.7912 27.5368 53.0367 24.7364 50.9652 23.1636ZM47.4999 31.7949C45.2622 31.7821 43.4081 29.928 43.4337 27.7158C43.4592 25.4781 45.3134 23.624 47.5255 23.6495C49.7505 23.6623 51.6174 25.5292 51.5918 27.7414C51.579 29.9791 49.7377 31.7949 47.4999 31.7949Z" fill="#0F2992"/>
<path d="M57.2692 55.4893C56.2079 55.4893 55.1594 55.4893 54.0469 55.4893C54.0469 60.6681 54.0469 65.8212 54.0469 70.9872C53.4843 70.9872 52.9856 70.9872 52.4357 70.9872C52.4357 64.7599 52.4357 58.5454 52.4357 52.2798C52.9472 52.2798 53.4587 52.2798 54.0213 52.2798C54.0213 52.7912 54.0213 53.2899 54.0213 53.8398C54.584 53.8398 55.0954 53.8398 55.6453 53.8398C55.6581 53.6863 55.6709 53.5201 55.6709 53.3667C55.6709 49.505 55.6837 45.6433 55.6709 41.7816C55.6581 38.9045 53.9574 36.5645 51.1954 36.0786C48.7659 35.6566 46.2468 35.6566 43.8173 36.0786C41.1576 36.5389 39.393 38.8022 39.3674 41.5003C39.3162 45.541 39.3546 49.5689 39.3546 53.6096C39.3546 53.6736 39.3674 53.7375 39.3802 53.8398C39.8917 53.8398 40.4159 53.8398 40.9658 53.8398C40.9658 53.3283 40.9658 52.8168 40.9658 52.2798C41.5284 52.2798 42.0399 52.2798 42.5897 52.2798C42.5897 58.5198 42.5897 64.7471 42.5897 71C42.0655 71 41.5668 71 41.0041 71C41.0041 65.8596 41.0041 60.7192 41.0041 55.5149C39.8917 55.5149 38.8303 55.5149 37.7562 55.5149C37.7434 55.387 37.7179 55.3103 37.7179 55.2336C37.7179 50.5919 37.6667 45.9502 37.7562 41.3085C37.8202 37.6002 40.7484 34.5569 44.4566 34.3268C46.6432 34.1989 48.8682 34.1989 51.0547 34.4035C54.405 34.7104 57.2181 37.8048 57.2692 41.1806C57.346 45.8479 57.2948 50.5279 57.3076 55.208C57.3076 55.2719 57.282 55.3614 57.2692 55.4893Z" fill="#0F2992"/>
<path d="M36.0556 40.7837C36.0556 41.3591 36.0556 41.8578 36.0556 42.4204C35.851 42.4204 35.6848 42.4204 35.5185 42.4204C33.3447 42.4204 31.1837 42.4204 29.0099 42.4204C27.5778 42.4204 26.363 42.9063 25.4679 44.0827C24.9436 44.7732 24.6623 45.5788 24.6495 46.4356C24.6367 49.9776 24.6367 53.5196 24.6367 57.1C25.161 57.1 25.6725 57.1 26.2479 57.1C26.2479 56.6013 26.2479 56.077 26.2479 55.5399C26.8105 55.5399 27.3092 55.5399 27.8591 55.5399C27.8591 60.6803 27.8591 65.8207 27.8591 70.9867C27.3604 70.9867 26.8361 70.9867 26.2863 70.9867C26.2863 66.9332 26.2863 62.8925 26.2863 58.8006C25.1866 58.8006 24.138 58.8006 23 58.8006C23 58.5833 23 58.417 23 58.2508C23 54.4275 23 50.5914 23 46.768C23 43.29 25.4551 40.8221 28.9204 40.8093C31.1326 40.7965 33.3575 40.8093 35.5697 40.8093C35.7231 40.7837 35.8638 40.7837 36.0556 40.7837Z" fill="#0F2992"/>
<path d="M63.8546 30.171C61.1949 30.1582 58.9444 32.3959 58.9444 35.0684C58.9444 37.7409 61.1693 39.9786 63.8291 39.9786C66.4888 39.9914 68.7393 37.7537 68.7393 35.0812C68.7521 32.4215 66.5271 30.1837 63.8546 30.171ZM63.8291 38.3419C62.0389 38.3163 60.5939 36.8458 60.5939 35.0684C60.6067 33.2782 62.0644 31.8205 63.8418 31.8205C65.6192 31.8205 67.1025 33.291 67.1153 35.0684C67.1281 36.833 65.5937 38.3674 63.8291 38.3419Z" fill="#0F2992"/>
<path d="M31.1709 30.1709C28.5112 30.1709 26.2735 32.4086 26.2607 35.0683C26.2607 37.728 28.5112 39.9786 31.1581 39.9786C33.8306 39.9786 36.0556 37.7536 36.0556 35.0811C36.0683 32.3958 33.8434 30.1709 31.1709 30.1709ZM31.1965 38.3418C29.4191 38.3674 27.8846 36.8457 27.8974 35.0683C27.9102 33.2909 29.3935 31.8204 31.1709 31.8204C32.9483 31.8204 34.4188 33.2782 34.4316 35.0683C34.4444 36.8457 32.9994 38.3035 31.1965 38.3418Z" fill="#0F2992"/>
<path d="M36.094 70.987C35.493 70.987 34.9943 70.987 34.47 70.987C34.47 65.821 34.47 60.6806 34.47 55.5146C35.0071 55.5146 35.5186 55.5146 36.0684 55.5146C36.0684 56.0389 36.0684 56.5376 36.0684 57.1002C37.1681 57.1002 38.2294 57.1002 39.3163 57.1002C39.3163 57.6757 39.3163 58.1871 39.3163 58.737C38.255 58.737 37.2065 58.737 36.094 58.737C36.094 62.8416 36.094 66.8951 36.094 70.987Z" fill="#0F2992"/>
<path d="M60.5428 70.9874C60.0057 70.9874 59.4942 70.9874 58.9444 70.9874C58.9444 66.9211 58.9444 62.8676 58.9444 58.7757C57.8447 58.7757 56.7834 58.7757 55.6965 58.7757C55.6965 58.2259 55.6965 57.7144 55.6965 57.1518C56.745 57.1518 57.8063 57.1518 58.9316 57.1518C58.9316 56.5764 58.9316 56.0649 58.9316 55.5278C59.4942 55.5278 60.0057 55.5278 60.5428 55.5278C60.5428 60.6682 60.5428 65.8086 60.5428 70.9874Z" fill="#0F2992"/>
<path d="M46.7327 55.5146C47.2698 55.5146 47.7685 55.5146 48.3055 55.5146C48.3055 60.6806 48.3055 65.821 48.3055 70.987C47.7813 70.987 47.2698 70.987 46.7327 70.987C46.7327 65.8466 46.7327 60.7062 46.7327 55.5146Z" fill="#0F2992"/>
<path d="M31.9637 70.9868C31.4267 70.9868 30.9152 70.9868 30.3909 70.9868C30.3909 66.9206 30.3909 62.8798 30.3909 58.8008C30.9024 58.8008 31.4139 58.8008 31.9637 58.8008C31.9637 62.8415 31.9637 66.895 31.9637 70.9868Z" fill="#0F2992"/>
<path d="M64.6218 70.987C64.0847 70.987 63.586 70.987 63.049 70.987C63.049 66.908 63.049 62.8545 63.049 58.7754C63.5732 58.7754 64.0719 58.7754 64.6218 58.7754C64.6218 62.8417 64.6218 66.8952 64.6218 70.987Z" fill="#0F2992"/>
</svg>
