<svg width="97" height="97" viewBox="0 0 97 97" fill="none" xmlns="http://www.w3.org/2000/svg">
<circle cx="48.5" cy="48.5" r="48" stroke="#0F2992"/>
<path d="M72.3141 67.7671C71.9217 67.7526 71.5438 67.7671 71.0642 67.7671C71.0642 66.837 71.0642 65.9795 71.0642 65.122C71.0642 64.468 70.8316 64.1918 70.1776 64.1192C68.7533 63.9302 67.329 63.7413 65.8901 63.5814C65.4541 63.5378 65.1344 63.4361 65.0326 62.9274C64.9454 62.535 64.7565 62.1716 64.5676 61.8083C64.4222 61.5176 64.4658 61.3287 64.6548 61.0816C65.5849 59.9044 66.5006 58.7126 67.4162 57.5063C67.8377 56.954 67.8231 56.6343 67.329 56.1256C65.7157 54.5123 64.1025 52.8991 62.4892 51.2858C61.966 50.7772 61.6608 50.7481 61.0795 51.1986C59.9894 52.0416 58.8849 52.841 57.8384 53.7275C57.3734 54.1199 56.9809 54.2217 56.4577 53.8729C56.1671 53.6839 55.8182 53.5822 55.4694 53.4804C55.2078 53.3932 55.1061 53.2624 55.077 52.9863C54.9026 51.4748 54.6846 49.9633 54.4957 48.4518C54.4085 47.7832 54.1469 47.5361 53.4638 47.5361C51.1674 47.5361 48.8566 47.5361 46.5602 47.5361C45.9062 47.5361 45.6446 47.7832 45.5574 48.4227C45.383 49.7743 45.1795 51.1405 45.0487 52.4921C44.9906 53.1171 44.8016 53.524 44.1331 53.6548C43.8424 53.713 43.5517 53.8583 43.2901 54.0182C42.9559 54.2217 42.7233 54.1345 42.4326 53.9165C41.2699 52.9863 40.0782 52.0852 38.9009 51.1841C38.3632 50.7772 38.0434 50.8062 37.5784 51.2713C35.9506 52.8991 34.3228 54.5269 32.695 56.1547C32.2154 56.6488 32.2009 56.9685 32.6224 57.5354C33.3781 58.5237 34.1048 59.5556 34.9332 60.4857C35.5146 61.1397 35.689 61.7211 35.1803 62.4768C35.064 62.6367 34.9914 62.8402 34.9623 63.0437C34.8896 63.4361 34.6425 63.5378 34.2792 63.5814C32.8404 63.7558 31.387 63.9447 29.9481 64.1192C29.2069 64.2064 28.9744 64.4534 28.9744 65.2092C28.9744 66.0521 28.9744 66.8951 28.9744 67.7962C28.4802 67.7962 28.0442 67.7671 27.6227 67.7962C27.1286 67.8253 26.8234 68.1741 26.8379 68.6246C26.8525 69.0606 27.1431 69.3658 27.6082 69.4094C27.7971 69.424 27.9861 69.424 28.1605 69.424H71.8781C72.0089 69.424 72.1542 69.424 72.285 69.424C72.8663 69.4094 73.1861 69.1042 73.2006 68.6246C73.2152 68.1014 72.8809 67.7962 72.3141 67.7671ZM40.4415 67.7381C40.6595 63.5669 44.3511 58.8725 50.121 58.9451C56.0653 59.0178 59.4662 63.9593 59.5825 67.7381H40.4415ZM69.4073 67.7235H61.2975C60.9632 64.3662 59.4953 61.6193 56.8065 59.5701C54.7718 58.015 52.4464 57.2738 49.903 57.3028C44.075 57.3464 39.0753 62.0118 38.7265 67.7381H30.6167C30.6167 67.1131 30.6022 66.5027 30.6312 65.9068C30.6312 65.8051 30.8202 65.6307 30.9364 65.6161C32.2881 65.4272 33.6543 65.2383 35.0059 65.1075C35.718 65.0348 36.1395 64.7732 36.343 64.0465C36.561 63.2907 36.9243 62.564 37.2586 61.8519C37.4766 61.4159 37.433 61.0525 37.1424 60.6892C36.1686 59.4538 35.2239 58.2039 34.2937 57.0121C35.6744 55.6314 37.0406 54.2653 38.4504 52.8555C38.5231 52.9136 38.6829 53.0154 38.8283 53.1462C39.9183 53.9891 41.0083 54.8175 42.0693 55.6605C42.4762 55.9802 42.8541 56.0238 43.3337 55.8058C44.1186 55.4425 44.9179 55.1228 45.7173 54.8175C46.1824 54.6431 46.4294 54.3815 46.4876 53.8729C46.662 52.3177 46.88 50.7626 47.098 49.1784H52.9551C53.1004 50.2975 53.2458 51.4166 53.3911 52.5357C53.4492 53.0154 53.5219 53.5095 53.58 53.9891C53.6236 54.3961 53.8417 54.6141 54.205 54.7594C55.077 55.1082 55.949 55.4716 56.8211 55.8494C57.2571 56.0384 57.5914 55.9512 57.9402 55.675C59.0447 54.803 60.1638 53.9601 61.2684 53.1026C61.3992 53.0008 61.5445 52.9136 61.6317 52.841C63.0125 54.2217 64.3786 55.5733 65.7739 56.9685C64.8292 58.2039 63.899 59.4247 62.9398 60.6311C62.5764 61.0816 62.5619 61.474 62.8235 61.9827C63.1723 62.6803 63.4921 63.3925 63.7246 64.1337C63.9135 64.7586 64.2624 65.0493 64.9018 65.1075C66.3262 65.2528 67.7505 65.4563 69.1748 65.6307C69.2474 65.6452 69.3056 65.6597 69.3928 65.6888V67.7235H69.4073Z" fill="white"/>
<path d="M74 20.1249C73.6657 21.3021 73.3169 22.4794 72.9972 23.6566C71.5002 29.2521 70.0032 34.8476 68.5062 40.4431C68.2301 41.475 67.5906 41.6494 66.8203 40.8936C65.3669 39.4548 63.9281 38.0014 62.3149 36.3882C62.2131 36.5771 62.155 36.7806 62.0242 36.9114C59.1174 39.8181 56.2107 42.7249 53.3039 45.6317C53.1586 45.777 53.0132 45.9223 52.8388 46.0241C52.5046 46.213 52.1703 46.1403 51.9087 45.8787C51.6471 45.6171 51.5744 45.2828 51.7633 44.9486C51.8505 44.7887 51.9814 44.6579 52.1122 44.5271C55.2805 41.3587 58.4489 38.1904 61.6172 35.0075C62.2277 34.3971 62.591 34.3825 63.2014 34.9929C64.3932 36.1702 65.5704 37.3619 66.7622 38.5392C66.8785 38.6554 67.0093 38.7717 67.1982 38.9461C68.8114 32.9291 70.4102 26.9703 72.0234 20.9243C65.9774 22.552 60.0331 24.1362 54.0015 25.7495C54.1759 25.9384 54.2922 26.0692 54.423 26.2C55.6003 27.3918 56.792 28.569 57.9693 29.7608C58.5506 30.3421 58.5506 30.72 57.9693 31.3014C54.3649 34.9057 50.7605 38.5101 47.1707 42.0999C46.5457 42.7249 46.2114 42.7249 45.5865 42.1145C43.2175 39.7891 40.863 37.4637 38.494 35.1383C38.3923 35.0365 38.2905 34.9493 38.2324 34.8912C33.5089 39.6292 28.7855 44.3527 24.0911 49.0326C25.2538 50.1953 26.4601 51.4016 27.7681 52.7096C27.8408 52.5933 27.9425 52.4044 28.0733 52.2736C31.169 49.1634 34.2647 46.0677 37.3749 42.972C38.0435 42.3034 38.3632 42.3034 39.0318 42.9429C40.6014 44.4835 42.1711 46.0241 43.7262 47.5792C43.9296 47.7827 44.1041 48.1315 44.0895 48.4076C44.0895 48.6256 43.8134 48.9744 43.5954 49.018C43.3192 49.0762 42.8977 48.989 42.6943 48.8C41.8804 48.0733 41.1246 47.303 40.3689 46.5327C39.6858 45.8351 39.0172 45.1084 38.3196 44.3672C38.0871 44.5852 37.9417 44.716 37.7964 44.8614C34.7007 47.9571 31.5905 51.0527 28.4948 54.163C27.7972 54.8606 27.492 54.8606 26.8089 54.1775C25.3555 52.7241 23.9167 51.2853 22.4633 49.8319C21.8529 49.207 21.8383 48.8727 22.4633 48.2477C27.4338 43.2772 32.4189 38.2921 37.3895 33.3216C37.9999 32.7111 38.3487 32.7257 38.9736 33.3361C41.3136 35.6324 43.6535 37.9433 45.9934 40.2396C46.0952 40.3414 46.2114 40.4431 46.255 40.5012C49.6123 37.1439 52.9551 33.8012 56.3705 30.3857C55.9636 29.9933 55.4404 29.5137 54.9462 29.0196C53.9725 28.0603 53.0132 27.0866 52.0395 26.1128C51.7633 25.8367 51.5453 25.546 51.6471 25.1391C51.7488 24.703 52.0976 24.5868 52.4755 24.485C59.2046 22.6974 65.9192 20.8952 72.6484 19.0785C73.2297 18.9186 73.6803 18.9767 74 19.5C74 19.718 74 19.9214 74 20.1249Z" fill="#0F2992"/>
<path d="M72.3141 67.7671C71.9217 67.7526 71.5438 67.7671 71.0642 67.7671C71.0642 66.837 71.0642 65.9795 71.0642 65.122C71.0642 64.468 70.8316 64.1918 70.1776 64.1192C68.7533 63.9302 67.329 63.7413 65.8901 63.5814C65.4541 63.5378 65.1344 63.4361 65.0326 62.9274C64.9454 62.535 64.7565 62.1716 64.5676 61.8083C64.4222 61.5176 64.4658 61.3287 64.6548 61.0816C65.5849 59.9044 66.5006 58.7126 67.4162 57.5063C67.8377 56.954 67.8231 56.6343 67.329 56.1256C65.7157 54.5123 64.1025 52.8991 62.4892 51.2858C61.966 50.7772 61.6608 50.7481 61.0795 51.1986C59.9894 52.0416 58.8849 52.841 57.8384 53.7275C57.3734 54.1199 56.9809 54.2217 56.4577 53.8729C56.1671 53.6839 55.8182 53.5822 55.4694 53.4804C55.2078 53.3932 55.1061 53.2624 55.077 52.9863C54.9026 51.4748 54.6846 49.9633 54.4957 48.4518C54.4085 47.7832 54.1469 47.5361 53.4638 47.5361C51.1674 47.5361 48.8566 47.5361 46.5602 47.5361C45.9062 47.5361 45.6446 47.7832 45.5574 48.4227C45.383 49.7743 45.1795 51.1405 45.0487 52.4921C44.9906 53.1171 44.8016 53.524 44.1331 53.6548C43.8424 53.713 43.5517 53.8583 43.2901 54.0182C42.9559 54.2217 42.7233 54.1345 42.4326 53.9165C41.2699 52.9863 40.0782 52.0852 38.9009 51.1841C38.3632 50.7772 38.0434 50.8062 37.5784 51.2713C35.9506 52.8991 34.3228 54.5269 32.695 56.1547C32.2154 56.6488 32.2009 56.9685 32.6224 57.5354C33.3781 58.5237 34.1048 59.5556 34.9332 60.4857C35.5146 61.1397 35.689 61.7211 35.1803 62.4768C35.064 62.6367 34.9914 62.8402 34.9623 63.0437C34.8896 63.4361 34.6425 63.5378 34.2792 63.5814C32.8404 63.7558 31.387 63.9447 29.9481 64.1192C29.2069 64.2064 28.9744 64.4534 28.9744 65.2092C28.9744 66.0521 28.9744 66.8951 28.9744 67.7962C28.4802 67.7962 28.0442 67.7671 27.6227 67.7962C27.1286 67.8253 26.8234 68.1741 26.8379 68.6246C26.8525 69.0606 27.1431 69.3658 27.6082 69.4094C27.7971 69.424 27.9861 69.424 28.1605 69.424H71.8781C72.0089 69.424 72.1542 69.424 72.285 69.424C72.8663 69.4094 73.1861 69.1042 73.2006 68.6246C73.2152 68.1014 72.8809 67.7962 72.3141 67.7671ZM40.4415 67.7381C40.6595 63.5669 44.3511 58.8725 50.121 58.9451C56.0653 59.0178 59.4662 63.9593 59.5825 67.7381H40.4415ZM69.4073 67.7235H61.2975C60.9632 64.3662 59.4953 61.6193 56.8065 59.5701C54.7718 58.015 52.4464 57.2738 49.903 57.3028C44.075 57.3464 39.0753 62.0118 38.7265 67.7381H30.6167C30.6167 67.1131 30.6022 66.5027 30.6312 65.9068C30.6312 65.8051 30.8202 65.6307 30.9364 65.6161C32.2881 65.4272 33.6543 65.2383 35.0059 65.1075C35.718 65.0348 36.1395 64.7732 36.343 64.0465C36.561 63.2907 36.9243 62.564 37.2586 61.8519C37.4766 61.4159 37.433 61.0525 37.1424 60.6892C36.1686 59.4538 35.2239 58.2039 34.2937 57.0121C35.6744 55.6314 37.0406 54.2653 38.4504 52.8555C38.5231 52.9136 38.6829 53.0154 38.8283 53.1462C39.9183 53.9891 41.0083 54.8175 42.0693 55.6605C42.4762 55.9802 42.8541 56.0238 43.3337 55.8058C44.1186 55.4425 44.9179 55.1228 45.7173 54.8175C46.1824 54.6431 46.4294 54.3815 46.4876 53.8729C46.662 52.3177 46.88 50.7626 47.098 49.1784H52.9551C53.1004 50.2975 53.2458 51.4166 53.3911 52.5357C53.4492 53.0154 53.5219 53.5095 53.58 53.9891C53.6236 54.3961 53.8417 54.6141 54.205 54.7594C55.077 55.1082 55.949 55.4716 56.8211 55.8494C57.2571 56.0384 57.5914 55.9512 57.9402 55.675C59.0447 54.803 60.1638 53.9601 61.2684 53.1026C61.3992 53.0008 61.5445 52.9136 61.6317 52.841C63.0125 54.2217 64.3786 55.5733 65.7739 56.9685C64.8292 58.2039 63.899 59.4247 62.9398 60.6311C62.5764 61.0816 62.5619 61.474 62.8235 61.9827C63.1723 62.6803 63.4921 63.3925 63.7246 64.1337C63.9135 64.7586 64.2624 65.0493 64.9018 65.1075C66.3262 65.2528 67.7505 65.4563 69.1748 65.6307C69.2474 65.6452 69.3056 65.6597 69.3928 65.6888V67.7235H69.4073Z" fill="#0F2992"/>
</svg>
