<svg width="97" height="97" viewBox="0 0 97 97" fill="none" xmlns="http://www.w3.org/2000/svg">
<circle cx="48.5" cy="48.5" r="48" stroke="#0F2992"/>
<path d="M41.845 29.9343C41.7573 29.5085 41.3942 29.2455 40.9559 29.2956C40.7179 29.3207 40.4925 29.3833 40.2671 29.4334C36.8233 30.1347 34.1184 31.8378 32.5781 35.1313C32.0271 36.3084 31.6514 37.5231 31.4009 38.8255C31.9269 38.9382 32.4153 39.0509 32.9413 39.1636C33.0289 38.7879 33.104 38.4749 33.1917 38.1618C34.0683 34.8307 35.8465 32.3011 39.3529 31.3494C40.0041 31.1741 40.6553 31.0363 41.294 30.8485C41.7198 30.7232 41.9326 30.335 41.845 29.9343ZM31.2381 41.0421C30.7873 41.017 30.4242 41.3551 30.3991 41.7934C30.3866 42.2192 30.7498 42.6074 31.1755 42.6199C31.6138 42.6325 31.977 42.2693 31.977 41.831C31.9895 41.3927 31.6764 41.0546 31.2381 41.0421Z" fill="white"/>
<path d="M71.9875 34.6677C71.9625 33.9413 71.5492 33.4404 70.8354 33.2651C70.3846 33.1524 69.9213 33.0647 69.4579 32.9896C69.1574 32.9395 69.0071 32.8018 68.8568 32.5137C68.6314 32.0754 68.7065 31.7749 68.982 31.4242C69.22 31.1237 69.4329 30.7856 69.6332 30.46C70.034 29.8088 69.9839 29.1701 69.4704 28.6066C69.1448 28.256 68.7942 27.9053 68.4436 27.5797C67.855 27.0287 67.2038 26.9661 66.5151 27.4044C66.0893 27.6674 65.6885 27.9679 65.2628 28.2309C65.1626 28.2935 64.9998 28.3436 64.8871 28.3186C64.4112 28.1683 63.9353 28.0055 63.9729 27.3418C63.9854 27.1164 63.8602 26.891 63.8352 26.653C63.76 25.8892 63.4094 25.3381 62.6956 25.0376H60.4415C59.7277 25.3507 59.377 25.9017 59.3019 26.6656C59.2768 26.9536 59.1892 27.2416 59.1266 27.5422C58.9888 28.2184 58.2875 28.5189 57.7115 28.1433C57.3609 27.9053 57.0102 27.6674 56.6596 27.442C55.9333 26.9661 55.257 27.0037 54.681 27.6549C54.2552 28.1307 53.8044 28.3186 53.1782 28.256C52.765 28.2059 52.3392 28.2434 51.9134 28.2434C51.0118 28.256 50.4232 28.7569 50.2354 29.6335C50.1602 30.0092 50.0475 30.3974 50.0225 30.7856C49.9724 31.5996 49.6218 32.113 48.7952 32.3259C48.5072 32.401 48.3194 32.4135 48.0814 32.2507C47.5304 31.8625 46.9794 31.4869 46.4034 31.1362C45.7271 30.7104 45.0134 30.7731 44.4248 31.3241C43.9614 31.7624 43.4981 32.2132 43.0598 32.6765C42.5088 33.2651 42.4462 34.0165 42.8594 34.6927C43.0848 35.0559 43.2852 35.4315 43.5732 35.7446C44.1117 36.3582 44.2495 36.9593 43.7986 37.6982C43.6484 37.9486 43.5231 38.0989 43.2351 38.1615C42.5714 38.2742 41.9202 38.412 41.2565 38.5623C40.4801 38.7376 40.0042 39.3011 39.9917 40.09C39.9666 40.7412 39.9792 41.4049 39.9917 42.0561C40.0167 42.8075 40.455 43.346 41.1814 43.5463C41.5821 43.659 41.9953 43.7717 42.4211 43.7968C43.2727 43.8594 43.8738 44.16 44.0741 45.0741C44.1242 45.3246 44.1618 45.4999 44.0115 45.7128C43.6358 46.2513 43.2727 46.7897 42.9095 47.3408C42.4211 48.0921 42.4963 48.8435 43.1099 49.4696C43.5231 49.8954 43.9364 50.3212 44.3747 50.7219C45.0008 51.3105 45.7271 51.3856 46.466 50.9223C46.7916 50.7094 47.1548 50.5341 47.4303 50.2711C48.0814 49.645 48.7577 49.5698 49.4965 50.0707C49.6468 50.1709 49.7971 50.3337 49.8346 50.4965C49.9974 51.1477 50.0976 51.8114 50.2354 52.4626C50.4232 53.3267 51.0118 53.8151 51.8884 53.8276C52.477 53.8401 53.078 53.8401 53.6666 53.8276C54.5307 53.8151 55.0942 53.3517 55.2946 52.5002C55.3822 52.1245 55.52 51.7363 55.52 51.3481C55.5325 50.4464 55.9708 49.9205 56.8349 49.7326C57.0102 49.695 57.2356 49.695 57.3734 49.7827C57.962 50.1459 58.513 50.5466 59.089 50.9098C59.8028 51.3606 60.5417 51.298 61.1428 50.7219C61.5936 50.2961 62.0444 49.8453 62.4702 49.3945C63.0337 48.7934 63.1088 48.0796 62.6705 47.3783C62.4451 47.0152 62.2448 46.6395 61.9567 46.3389C61.3807 45.7128 61.293 45.0741 61.7438 44.3353C61.8816 44.1099 61.9818 43.9846 62.2448 43.9345C62.7707 43.8594 63.2841 43.7091 63.8101 43.6215C64.4488 43.5213 65.0248 43.3334 65.3629 42.7073C65.6009 42.8576 65.7887 42.9828 65.9891 43.108C66.1894 43.2333 66.3773 43.371 66.5777 43.4962C67.1788 43.8594 67.8299 43.7968 68.3434 43.3209C68.7316 42.9578 69.1073 42.5821 69.4704 42.1939C69.9338 41.693 69.9964 41.0543 69.6332 40.4657C69.4078 40.09 69.1824 39.7144 68.9069 39.3762C68.6439 39.0506 68.6064 38.7626 68.7942 38.3619C68.9445 38.0613 69.0947 37.8985 69.4203 37.8485C69.8837 37.7858 70.347 37.6857 70.7979 37.5729C71.4991 37.4102 71.9124 36.8842 71.9374 36.1579C72 35.6695 72.0126 35.1686 71.9875 34.6677ZM64.0105 41.9685C63.1589 42.1438 62.3449 42.3316 61.5184 42.4569C60.9173 42.557 60.5792 42.82 60.4164 43.4211C60.2787 43.922 60.0407 44.4104 59.8028 44.8738C59.5899 45.287 59.6024 45.6251 59.8654 46.0008C60.3162 46.652 60.742 47.3282 61.2054 47.9794C61.3431 48.1798 61.3556 48.3175 61.1678 48.4929C60.7921 48.8435 60.4415 49.2192 60.0658 49.6074C59.3019 49.094 58.563 48.6181 57.8367 48.1046C57.436 47.8166 57.0603 47.8041 56.622 48.0295C56.1086 48.2925 55.5701 48.5054 55.0316 48.6932C54.6058 48.831 54.3804 49.0814 54.3053 49.5072C54.155 50.2836 53.9797 51.06 53.8419 51.849C53.7918 52.112 53.7042 52.2247 53.4162 52.2121C52.9152 52.1871 52.4143 52.1996 51.8759 52.1996C51.7131 51.3856 51.5252 50.5842 51.4 49.7702C51.2998 49.144 51.0368 48.7684 50.3856 48.6056C49.9223 48.4929 49.4715 48.28 49.0582 48.042C48.5824 47.7791 48.1941 47.8041 47.7558 48.1172C47.0546 48.6181 46.3283 49.0814 45.6645 49.5197C45.2137 49.0689 44.7879 48.6306 44.3121 48.1422C44.7504 47.491 45.2262 46.7397 45.7397 46.0133C46.0277 45.6126 46.0402 45.2369 45.8148 44.7986C45.5644 44.2977 45.3389 43.7843 45.1761 43.2458C45.0384 42.7824 44.7754 42.5445 44.2996 42.4569C43.423 42.2941 42.5589 42.1062 41.6447 41.9309C41.6447 41.3674 41.6322 40.8289 41.6572 40.2904C41.6572 40.1902 41.8451 40.0274 41.9578 40.0024C42.7217 39.8271 43.4856 39.6643 44.2495 39.5265C44.7253 39.4389 45.0134 39.2134 45.1636 38.725C45.3264 38.1991 45.5518 37.6731 45.8023 37.1722C46.0277 36.7339 46.0152 36.3582 45.7272 35.9575C45.2262 35.2437 44.7504 34.5049 44.2745 33.8036C44.7378 33.3653 45.1761 32.9395 45.6771 32.4762C46.3282 32.9145 47.0796 33.3903 47.7934 33.9038C48.1942 34.1918 48.5698 34.2043 49.0081 33.9789C49.509 33.7284 50.035 33.5156 50.561 33.3402C51.0118 33.19 51.2622 32.9395 51.3374 32.4636C51.4876 31.587 51.688 30.723 51.8759 29.7963C52.4394 29.7963 52.9528 29.7712 53.4663 29.8088C53.5915 29.8213 53.7793 29.9841 53.8169 30.1093C54.0047 30.8858 54.155 31.6622 54.2928 32.4511C54.3679 32.927 54.6184 33.19 55.0692 33.3402C55.6077 33.5281 56.1461 33.741 56.6596 34.0039C57.0854 34.2168 57.436 34.2043 57.8367 33.9288C58.563 33.4154 59.3144 32.9395 60.0407 32.4511C60.4916 32.9145 60.9299 33.3528 61.3807 33.8161C60.9048 34.5299 60.4289 35.2813 59.9155 36.0076C59.64 36.3958 59.615 36.7464 59.8404 37.1847C60.1034 37.6982 60.3162 38.2367 60.5041 38.7751C60.6544 39.226 60.9299 39.4639 61.3932 39.5516C62.1571 39.6893 62.921 39.8646 63.6849 40.0024C63.9479 40.0525 64.0606 40.1527 64.048 40.4282C63.9854 40.9291 64.0105 41.43 64.0105 41.9685ZM63.4344 38.0989C62.8959 38.4245 62.0319 38.0864 61.7313 37.5604C61.3431 36.8842 61.4683 36.3582 61.9442 35.8198C62.2072 35.5192 62.4076 35.156 62.633 34.8179C63.1715 33.9789 63.1214 33.3027 62.4451 32.5763C62.395 32.5262 62.3449 32.4636 62.2448 32.3509C63.472 32.4511 64.5615 33.4905 64.8495 34.7929C65.1125 36.0326 64.5239 37.4227 63.4344 38.0989ZM70.3846 36.0452C69.7209 36.1829 69.0697 36.3332 68.4185 36.4459C67.9802 36.521 67.7298 36.7464 67.592 37.1597C67.4417 37.598 67.2539 38.0238 67.0535 38.4495C66.8782 38.8127 66.8782 39.1258 67.1036 39.4639C67.4918 40.0274 67.8675 40.6035 68.2557 41.192C67.9552 41.4801 67.6671 41.7681 67.3541 42.0686C66.8281 41.718 66.2896 41.3799 65.7887 41.0042C65.6635 40.9165 65.6134 40.6536 65.6134 40.4782C65.6134 39.8771 65.5383 39.3261 65.0499 38.8628C65.7136 38.1615 66.1895 37.3726 66.3898 36.4334C67.1412 32.9645 64.048 29.9966 60.5792 30.7104C59.3896 30.9609 58.5004 31.5495 57.5612 32.1756C57.2732 32.3635 57.0603 32.3635 56.7222 32.2758C55.9082 32.0629 55.6077 31.562 55.5701 30.7856C55.5576 30.4976 55.495 30.197 55.3948 29.9215C55.2069 29.3955 55.3948 29.0574 55.8581 28.7819C56.3841 29.1326 56.9351 29.4832 57.461 29.8589C57.8492 30.1344 58.2124 30.172 58.6382 29.934C59.0264 29.7337 59.4271 29.5709 59.8404 29.4331C60.2536 29.2954 60.4916 29.0574 60.5667 28.6191C60.6794 27.9679 60.8297 27.3042 60.9674 26.6405H62.2197C62.3575 27.3042 62.4952 27.9554 62.6204 28.6191C62.6956 29.0574 62.921 29.3079 63.3468 29.4331C63.76 29.5709 64.1733 29.7337 64.549 29.934C64.9747 30.1594 65.3379 30.1344 65.7261 29.8589C66.2646 29.4832 66.8156 29.1326 67.3666 28.7569C67.6546 29.0574 67.9426 29.358 68.2432 29.671C67.88 30.2095 67.5169 30.7731 67.1412 31.3115C66.8782 31.6872 66.8782 32.0379 67.0911 32.4511C67.2915 32.8393 67.4668 33.2401 67.592 33.6533C67.7298 34.0916 67.9927 34.317 68.4436 34.4047C69.0822 34.5174 69.7209 34.6551 70.3846 34.7929V36.0452Z" fill="#0F2992"/>
<path d="M50.348 25.025C50.4983 25.0501 50.6486 25.0877 50.7989 25.1127C51.2497 25.1878 51.5377 25.5134 51.5127 25.9517C51.4876 26.39 51.1745 26.7031 50.7112 26.7031C50.348 26.7031 49.9974 26.6405 49.6342 26.6405C47.1046 26.6029 44.6126 26.941 42.1456 27.442C40.5427 27.755 38.9397 28.1307 37.3994 28.6567C33.6927 29.934 31.5888 32.7642 30.3866 36.3582C29.9984 37.5354 29.7104 38.7626 29.3347 39.9397C29.1344 40.5408 28.8463 41.1169 28.5959 41.7055C28.4206 42.0937 28.4832 42.4318 28.8088 42.7198C29.0091 42.8951 29.2095 43.0704 29.3973 43.2458C30.2865 44.0472 30.4993 45.0866 29.9859 46.1636C28.934 48.3551 27.6567 50.3963 26.1539 52.3123C25.941 52.5753 25.7657 52.8758 25.5403 53.2139C25.9035 53.4519 26.204 53.6773 26.5296 53.8902C26.7801 54.0404 27.0556 54.1657 27.306 54.3159C28.5583 55.0673 28.934 56.2194 28.3329 57.5594C28.1826 57.8975 27.9948 58.2231 27.832 58.5487C28.2202 58.8993 28.671 59.1873 28.9716 59.5881C29.3472 60.089 28.8338 60.5022 28.646 60.9405C28.7211 61.0031 28.7712 61.0407 28.8213 61.0657C30.1612 61.8296 30.5745 62.7563 30.2113 64.2716C30.036 64.9979 30.0485 65.6867 30.3115 66.3879C30.6121 67.1769 31.2883 67.5776 32.1023 67.3272C35.1704 66.3879 38.2385 65.4237 41.294 64.4344C42.2583 64.1213 43.21 63.7582 44.1242 63.3449C44.6126 63.132 45.0634 62.7814 45.4767 62.4433C45.9024 62.1051 46.1278 61.6293 46.1779 61.0657C46.228 60.4897 46.5536 60.2142 47.0545 60.2518C47.5179 60.2893 47.7934 60.665 47.7683 61.2285C47.7057 62.4182 47.1046 63.3324 46.1529 63.946C45.2763 64.522 44.312 64.9729 43.3478 65.4112C42.5588 65.7618 41.7073 65.9997 40.8557 66.2878C40.8933 66.3629 40.9183 66.4255 40.9559 66.4631C42.1331 67.8281 43.0096 69.3684 43.5231 71.0965C43.5982 71.3595 43.736 71.4096 43.9864 71.4096C48.3945 71.3846 52.8025 71.372 57.198 71.3595C58.4503 71.3595 59.7026 71.347 60.9424 71.347C61.1678 71.347 61.4057 71.347 61.7188 71.347C61.556 71.059 61.4182 70.8336 61.293 70.6081C60.3538 68.905 59.8403 67.0642 59.4647 65.1732C58.9387 62.5685 58.7634 59.9512 59.4146 57.3214C59.9656 55.0798 61.0551 53.1263 62.4451 51.3105C63.497 49.933 64.5364 48.5429 65.0874 46.8649C65.2001 46.5142 65.3003 46.1511 65.413 45.7879C65.5633 45.3246 65.9515 45.0741 66.3772 45.1868C66.8281 45.2995 67.066 45.7002 66.9533 46.2011C66.6402 47.6037 66.0767 48.8936 65.2752 50.0957C64.7869 50.8346 64.2734 51.5609 63.7224 52.2622C61.869 54.6415 60.7169 57.2839 60.6042 60.3269C60.5291 62.4433 60.9173 64.497 61.4307 66.5257C61.8189 68.0284 62.3825 69.456 63.2841 70.7459C63.4845 71.0339 63.6348 71.372 63.7725 71.6976C64.0605 72.4114 63.7349 72.9123 62.9585 72.9249C61.0676 72.9499 59.1766 72.9499 57.2857 72.9624C52.6272 72.975 47.9812 72.9875 43.3227 73C42.5463 73 42.3835 72.8622 42.1706 72.1234C41.7699 70.7835 41.2439 69.5061 40.455 68.354C40.3548 68.2163 40.2546 68.0785 40.1419 67.9408C39.2778 66.8763 39.1902 66.8889 37.9254 67.2771C36.2098 67.8156 34.4691 68.2538 32.766 68.8049C31.1004 69.3433 29.0843 68.7047 28.6209 66.2252C28.4832 65.5114 28.5458 64.7349 28.6585 64.0086C28.7962 63.0569 28.7837 62.8941 27.9697 62.4057C26.9429 61.8046 26.8176 61.4665 27.1182 60.3394C27.1432 60.2267 27.0806 60.0389 26.993 59.9637C25.891 58.987 25.8534 58.7741 26.5672 57.4717C26.5797 57.4592 26.5797 57.4466 26.5922 57.4341C27.2559 56.2319 27.2058 56.0065 25.9786 55.3804C25.1271 54.9421 24.3632 54.4412 24 53.502C24 53.2515 24 53.001 24 52.7506C24.3256 52.2246 24.6136 51.6736 24.9893 51.1852C26.3418 49.4195 27.5064 47.5411 28.5082 45.5625C28.7462 45.0866 28.7086 44.7485 28.3079 44.4229C28.2202 44.3603 28.1451 44.2726 28.0699 44.1975C26.8051 43.0579 26.6298 42.2815 27.2559 40.7162C27.6316 39.7895 27.9948 38.8628 28.3079 37.9236C28.5708 37.1221 28.7086 36.2831 28.9841 35.4941C30.4868 31.2865 33.1542 28.2309 37.5247 26.8659C40.0668 26.077 42.6715 25.6387 45.3013 25.288C46.1028 25.1878 46.9043 25.1002 47.7057 25C48.5948 25.025 49.4714 25.025 50.348 25.025Z" fill="#0F2992"/>
<path d="M32.9413 39.1635C32.4153 39.0508 31.927 38.9381 31.401 38.8253C31.6515 37.5355 32.0271 36.3083 32.5781 35.1311C34.1185 31.8376 36.8109 30.1345 40.2672 29.4332C40.4926 29.3831 40.718 29.3205 40.9559 29.2955C41.4067 29.2329 41.7699 29.5084 41.845 29.9341C41.9202 30.3349 41.7073 30.7106 41.294 30.8358C40.6554 31.0236 39.9917 31.1614 39.353 31.3367C35.8466 32.301 34.0684 34.818 33.1918 38.1491C33.1041 38.4747 33.0415 38.7878 32.9413 39.1635Z" fill="#0F2992"/>
<path d="M31.1881 42.6324C30.7623 42.6199 30.3867 42.2317 30.4117 41.8059C30.4242 41.3676 30.7999 41.0295 31.2507 41.0545C31.689 41.0671 32.0021 41.4052 32.0021 41.8435C31.9896 42.2818 31.6139 42.6449 31.1881 42.6324Z" fill="#0F2992"/>
<path d="M52.8025 35.4316C49.7093 35.4316 47.1922 37.9487 47.2048 41.0419C47.2048 44.1225 49.7469 46.6396 52.8275 46.627C55.9081 46.6145 58.4002 44.11 58.4002 41.0419C58.4002 37.9487 55.8831 35.4316 52.8025 35.4316ZM52.8025 45.0116C50.5859 45.0116 48.8202 43.2459 48.8202 41.0293C48.8202 38.8253 50.5984 37.0346 52.7899 37.022C55.0065 37.0095 56.8223 38.8253 56.8098 41.0293C56.7973 43.2459 55.0065 45.0116 52.8025 45.0116Z" fill="#0F2992"/>
<path d="M53.6039 41.0043C53.6165 41.4426 53.2533 41.8183 52.815 41.8183C52.3642 41.8183 52.0135 41.4801 52.0135 41.0293C52.0135 40.5785 52.3767 40.2153 52.815 40.2279C53.2283 40.2279 53.5789 40.591 53.6039 41.0043Z" fill="#0F2992"/>
</svg>
