<svg width="97" height="97" viewBox="0 0 97 97" fill="none" xmlns="http://www.w3.org/2000/svg">
<path d="M44.6311 78C44.5663 77.9481 44.5144 77.8833 44.4366 77.8315C44.0866 77.5722 43.9829 77.2351 44.1125 76.8332C44.2292 76.4442 44.5274 76.2368 44.9293 76.2368C47.2889 76.2238 49.6356 76.2238 51.9952 76.2368C52.3971 76.2368 52.6823 76.4442 52.812 76.8332C52.9935 77.3777 52.6823 77.7018 52.2934 78C49.7393 78 47.1852 78 44.6311 78Z" fill="#0F2992"/>
<path d="M57.9461 52.6792C58.1536 52.8477 58.4777 52.9904 58.5814 53.2237C58.6851 53.4571 58.6981 53.8979 58.5425 54.0794C57.8813 54.8314 57.1812 55.5315 56.4422 56.2057C56.1181 56.5039 55.6902 56.4261 55.3661 56.1149C55.042 55.8037 54.9382 55.3759 55.2364 55.0388C55.9106 54.2869 56.6496 53.5867 57.3886 52.8866C57.4794 52.7829 57.6868 52.77 57.9461 52.6792Z" fill="#0F2992"/>
<path d="M55.9107 69.4946C56.2348 69.6891 56.4941 69.7799 56.6756 69.9614C57.259 70.5059 57.8165 71.0634 58.361 71.6468C58.8018 72.1006 58.8148 72.6062 58.4388 72.9822C58.0628 73.3582 57.5702 73.3323 57.1034 72.8914C56.507 72.321 55.9236 71.7246 55.3532 71.1282C55.0809 70.843 54.9512 70.48 55.1716 70.1429C55.3532 69.8836 55.6384 69.715 55.9107 69.4946Z" fill="#0F2992"/>
<path d="M63.6248 30.3018C60.2798 30.1722 57.4534 32.8819 57.2979 36.3565C57.1553 39.6884 59.8909 42.5278 63.3655 42.6704C66.6586 42.8 69.5108 40.1033 69.6664 36.6935C69.822 33.3097 67.0864 30.4315 63.6248 30.3018ZM63.7026 40.8682C61.5374 41.0627 59.3593 39.2476 59.113 37.1214C58.7888 34.3858 60.7725 32.3892 62.8987 32.1299C65.5565 31.7928 67.5791 33.7894 67.8384 35.9027C68.1755 38.5216 66.1529 40.7905 63.7026 40.8682Z" fill="#0F2992"/>
<path d="M64.3508 36.4732C64.3508 36.9659 63.9618 37.3548 63.4692 37.3418C62.9895 37.3289 62.6264 36.9659 62.6264 36.4862C62.6264 35.9935 63.0154 35.6045 63.5081 35.6175C63.9748 35.6305 64.3378 36.0064 64.3508 36.4732Z" fill="#0F2992"/>
<circle cx="48.5" cy="48.5" r="48" stroke="#0F2992"/>
<path d="M56.144 61.0027C54.6401 55.3241 48.002 53.1978 43.3995 56.8799C40.0545 59.5507 39.5229 64.7496 42.3104 67.9779C43.3476 69.1706 43.9829 70.4412 44.0866 72.0489C44.1903 73.5528 45.2794 74.4474 46.7963 74.4863C47.3408 74.4992 47.8983 74.4863 48.4558 74.4863C49.0392 74.4863 49.6356 74.5122 50.219 74.4863C51.6711 74.4344 52.6694 73.5139 52.8509 72.0748C52.9157 71.634 52.9287 71.1802 53.0194 70.7394C53.2139 69.7022 53.8622 68.9243 54.5104 68.1334C56.2477 66.0202 56.8441 63.6217 56.144 61.0027ZM53.0324 67.1222C51.8785 68.4446 51.1655 69.9096 51.1136 71.6858C51.1006 72.4119 50.7506 72.6971 50.0245 72.7101C49.493 72.723 48.9614 72.7101 48.4169 72.7101C47.8983 72.7101 47.3797 72.723 46.8611 72.7101C46.1869 72.6971 45.8109 72.4119 45.798 71.7636C45.7591 69.8059 44.8904 68.2501 43.6328 66.824C41.9085 64.8404 41.8177 61.8714 43.3087 59.5507C44.696 57.4114 47.5093 56.3354 49.9597 57.0095C54.5493 58.2671 56.157 63.5439 53.0324 67.1222ZM49.3374 51.0846C49.3374 50.6308 49.3633 50.19 49.3374 49.7362C49.2985 49.1787 48.9355 48.8546 48.4428 48.8676C47.9761 48.8805 47.626 49.2046 47.6001 49.7362C47.5742 50.6178 47.5742 51.4994 47.6001 52.3681C47.6131 52.9126 48.015 53.2627 48.4947 53.2497C48.9484 53.2367 49.2985 52.8997 49.3374 52.3681C49.3633 51.9532 49.3374 51.5124 49.3374 51.0846ZM58.5814 53.2238C58.4777 52.9774 58.1536 52.8348 57.9461 52.6792C57.6868 52.77 57.4923 52.783 57.3757 52.8997C56.6496 53.5998 55.9106 54.2999 55.2235 55.0518C54.9253 55.376 55.029 55.8168 55.3531 56.1279C55.6773 56.4391 56.1051 56.5169 56.4292 56.2187C57.1682 55.5445 57.8683 54.8444 58.5295 54.0924C58.6851 53.898 58.6851 53.4701 58.5814 53.2238ZM41.3251 69.7022C40.988 69.4818 40.625 69.5985 40.3397 69.8708C39.7433 70.4412 39.1599 71.0246 38.5895 71.621C38.1487 72.0748 38.1098 72.5675 38.4728 72.9434C38.8488 73.3453 39.3544 73.3194 39.8341 72.8527C40.4046 72.3082 40.962 71.7507 41.5066 71.1672C41.6881 70.9857 41.7789 70.7135 41.9733 70.4023C41.74 70.156 41.5714 69.8578 41.3251 69.7022ZM41.727 55.0648C41.0139 54.3258 40.3008 53.5738 39.5359 52.8737C39.2248 52.5885 38.8099 52.6792 38.4987 52.9774C38.1746 53.2886 38.0709 53.7294 38.3561 54.0535C39.0432 54.8185 39.7693 55.5704 40.5472 56.2316C41.0398 56.6465 41.8177 56.1668 41.8307 55.4149C41.8177 55.35 41.8177 55.1685 41.727 55.0648ZM58.361 71.634C57.8165 71.0635 57.259 70.4931 56.6755 69.9615C56.4811 69.78 56.2218 69.6763 55.9106 69.4948C55.6384 69.7281 55.3531 69.8837 55.1846 70.1301C54.9512 70.4671 55.0938 70.8431 55.3661 71.1154C55.9365 71.7118 56.52 72.2952 57.1164 72.8786C57.5831 73.3194 58.0758 73.3454 58.4518 72.9694C58.8148 72.5934 58.8018 72.1007 58.361 71.634Z" fill="white"/>
<path d="M73.1799 33.8154C73.0373 33.8154 72.8298 33.7246 72.778 33.6209C72.4928 32.9986 72.2594 32.3633 72.0001 31.728C72.0908 31.6243 72.1686 31.5465 72.2594 31.4558C73.0762 30.613 73.0762 29.8481 72.2723 29.0313C71.9353 28.6813 71.5852 28.3442 71.2481 28.0071C70.0553 26.8143 69.5497 26.8014 68.2921 27.9163C68.2662 27.9423 68.2273 27.9423 68.2014 27.9682C67.6957 27.7608 67.2031 27.5144 66.6845 27.3459C66.2826 27.2162 66.127 27.0347 66.127 26.5939C66.127 25.5697 65.5435 25.0122 64.5063 25.0122C63.897 25.0122 63.3006 25.0122 62.6913 25.0122C61.3559 25.0122 60.9021 25.466 60.8243 26.7884C60.8113 26.944 60.7076 27.1644 60.5909 27.2162C59.9816 27.4885 59.3593 27.7219 58.737 27.9682C58.6592 27.8904 58.5814 27.8256 58.5036 27.7478C57.6349 26.8921 56.8441 26.8921 56.0014 27.7478C55.6124 28.1367 55.2235 28.5257 54.8345 28.9146C53.8751 29.874 53.8621 30.5223 54.7697 31.5336C54.8734 31.6502 54.9123 31.8966 54.8604 32.0392C54.6919 32.5319 54.4585 32.9856 54.29 33.4783C54.1863 33.7506 54.0566 33.8543 53.7714 33.8413C53.2009 33.8154 52.6434 33.9321 52.3193 34.4507C52.1248 34.7748 52.0471 35.1767 51.9044 35.5786C51.8915 35.5786 51.8267 35.5916 51.7618 35.5916C49.6096 35.5916 47.4445 35.5916 45.2923 35.6045C44.9293 35.6045 44.8904 35.436 44.8515 35.1378C44.1903 29.6407 39.7174 25.3882 34.2203 25.0252C27.1025 24.5584 21.2813 30.6519 22.0721 37.7697C22.6555 43.0334 26.7654 47.2082 32.0292 47.8564C32.483 47.9083 32.5867 48.0638 32.5867 48.4917C32.5737 52.5627 32.5737 56.6337 32.5867 60.7047C32.5867 61.0288 32.5997 61.3659 32.6515 61.69C32.7941 62.7401 33.7017 63.7255 34.7648 63.8162C35.8279 63.907 36.904 63.8811 37.9671 63.8551C38.4598 63.8422 38.771 63.4662 38.771 63.0124C38.771 62.4938 38.395 62.1438 37.7727 62.1308C37.0077 62.1049 36.2558 62.1308 35.4908 62.1178C34.687 62.1049 34.3758 61.8196 34.3758 61.0417C34.3629 56.8152 34.3758 52.5886 34.3629 48.362C34.3629 48.025 34.4796 47.9342 34.8037 47.8953C40.1063 47.273 44.2681 43.1242 44.8645 37.8475C44.9034 37.4845 45.0201 37.3807 45.3701 37.3937C46.9907 37.4067 48.6113 37.3937 50.232 37.3937H51.9693C52.2026 38.8199 52.449 39.0273 53.8881 39.1829C54.0307 39.1958 54.2122 39.3514 54.277 39.494C54.4715 39.8959 54.5882 40.3367 54.7956 40.7257C54.9901 41.0887 55.003 41.3221 54.666 41.6462C53.927 42.3463 53.9529 43.1761 54.6789 43.9151C55.0679 44.304 55.4568 44.693 55.8458 45.0819C56.9478 46.1839 57.5312 46.1839 58.6851 45.1078C58.724 45.0689 58.7758 45.056 58.8018 45.043C59.3074 45.2505 59.7871 45.4968 60.2927 45.6524C60.7206 45.782 60.8891 45.9635 60.8891 46.4432C60.8762 47.3378 61.3948 47.8953 62.2245 47.999C62.3542 48.012 62.4838 48.0379 62.6524 48.0509V60.3546C62.6524 62.0141 62.5875 62.0789 60.941 62.0919C60.2668 62.0919 59.5926 62.0919 58.9314 62.1567C58.4777 62.2086 58.2573 62.5586 58.2573 62.9995C58.2702 63.4273 58.5036 63.7903 58.9185 63.8033C60.0983 63.8292 61.317 63.907 62.4709 63.7125C63.7544 63.5051 64.4286 62.3901 64.4286 60.8732C64.4286 56.7892 64.4286 52.6923 64.4286 48.6084V47.999C65.2583 47.9731 66.0362 47.7138 66.0881 46.91C66.127 45.9376 66.5937 45.5746 67.4105 45.3931C67.5272 45.3671 67.6439 45.3023 67.7346 45.2375C68.0976 44.9782 68.3699 45.0301 68.694 45.3671C69.3552 46.0543 70.2109 46.0413 70.8981 45.3801C71.287 45.0171 71.65 44.6281 72.039 44.2522C73.2447 43.0464 73.2577 42.5667 72.1297 41.3091C72.1038 41.2832 72.0908 41.2443 72.0779 41.2313C72.3242 40.622 72.5576 40.0126 72.8298 39.4162C72.8817 39.2866 73.1021 39.1569 73.2447 39.1569C74.1134 39.1958 74.6968 38.8328 75.0339 38.0549V34.9433C74.632 34.1395 74.0485 33.7765 73.1799 33.8154ZM43.1661 36.6028C43.0235 42.1129 38.6283 46.2099 33.3387 46.1969C27.8934 46.0543 23.602 41.6462 23.7316 36.3306C23.8613 30.9242 28.3212 26.6069 33.6368 26.7625C39.0043 26.931 43.3087 31.365 43.1661 36.6028ZM73.2058 37.277C73.141 37.3159 73.1151 37.3548 73.0891 37.3418C71.9093 37.277 71.274 37.8604 71.0018 38.9884C70.8981 39.4292 70.6647 39.8441 70.4573 40.2719C69.9516 41.3091 70.0035 41.711 70.7814 42.5408C70.8332 42.6056 70.8851 42.6704 70.9499 42.7482C70.535 43.1501 70.1461 43.5261 69.7442 43.928C69.7312 43.928 69.6923 43.928 69.6664 43.9151C68.5903 42.9557 68.3569 42.9427 67.0475 43.578C66.6326 43.7854 66.1918 43.941 65.764 44.0966C64.6749 44.4726 64.4415 44.7837 64.3767 45.9246C64.3767 46.0024 64.3508 46.0932 64.3378 46.1969H62.6913C62.6653 46.158 62.6264 46.1321 62.6264 46.1061C62.7042 44.8874 62.056 44.2911 60.941 44.0058C60.4613 43.8891 60.0205 43.6298 59.5667 43.4094C58.6851 42.9946 58.2184 43.0594 57.5053 43.7206C57.4145 43.7984 57.3238 43.8762 57.233 43.954C57.1682 43.9021 57.1034 43.8632 57.0645 43.8113C56.7144 43.4743 56.3773 43.1372 56.0403 42.826C56.0532 42.7482 56.0403 42.7093 56.0532 42.6834C57.0256 41.5555 57.0386 41.3739 56.3773 40.0256C56.1699 39.6107 56.0143 39.1699 55.8587 38.7291C55.4828 37.6919 55.1716 37.4326 54.0566 37.3678C53.9788 37.3678 53.8881 37.3418 53.7714 37.3289V35.6823C53.8233 35.6564 53.8751 35.6175 53.914 35.6175C55.0679 35.7083 55.6513 35.0989 55.9365 34.0487C56.0662 33.5561 56.3255 33.0893 56.5459 32.6226C56.9867 31.6762 56.9348 31.2354 56.2218 30.4834C56.1569 30.4056 56.0921 30.3278 56.0143 30.2371C56.4162 29.8352 56.8182 29.4592 57.2071 29.0573C57.233 29.0573 57.2719 29.0443 57.2849 29.0702C58.4258 30.0296 58.5943 30.0426 59.9427 29.3814C60.3576 29.1739 60.7984 29.0184 61.2392 28.8628C62.2764 28.4998 62.5357 28.1627 62.5875 27.0607C62.5875 26.9829 62.6135 26.8921 62.6264 26.7884H64.2859C64.3119 26.8403 64.3508 26.8791 64.3508 26.931C64.3248 28.3442 64.9212 28.6294 65.9195 28.9535C66.3863 29.1091 66.84 29.3295 67.2938 29.537C68.2791 30.0037 68.707 29.9518 69.5238 29.1869C69.5886 29.135 69.6534 29.0832 69.7312 29.0184C70.1202 29.4203 70.5091 29.8222 70.8981 30.2241C70.8981 30.2241 70.911 30.276 70.8851 30.2889C69.9387 31.378 69.9127 31.6243 70.548 32.9078C70.7554 33.3227 70.911 33.7635 71.0666 34.2043C71.4426 35.2934 71.7538 35.5268 72.8947 35.5916C72.9725 35.5916 73.0632 35.6175 73.1669 35.6305C73.1799 35.7472 73.1929 35.8509 73.1929 35.9546C73.2058 36.3954 73.2058 36.8492 73.2058 37.277Z" fill="#0F2992"/>
<path d="M56.1439 61.0027C54.64 55.3241 48.002 53.1978 43.3994 56.8798C40.0545 59.5506 39.5229 64.7496 42.3104 67.9778C43.3476 69.1706 43.9828 70.4412 44.0866 72.0488C44.1903 73.5527 45.2793 74.4473 46.7962 74.4862C47.3408 74.4992 47.8983 74.4862 48.4557 74.4862C49.0392 74.4862 49.6356 74.5122 50.219 74.4862C51.6711 74.4344 52.6693 73.5139 52.8509 72.0747C52.9157 71.6339 52.9286 71.1802 53.0194 70.7394C53.2139 69.7022 53.8621 68.9243 54.5104 68.1334C56.2477 66.0201 56.8441 63.6216 56.1439 61.0027ZM53.0324 67.1221C51.8785 68.4446 51.1654 69.9096 51.1136 71.6858C51.1006 72.4118 50.7505 72.6971 50.0245 72.71C49.4929 72.723 48.9614 72.71 48.4168 72.71C47.8983 72.71 47.3797 72.723 46.8611 72.71C46.1869 72.6971 45.8109 72.4118 45.7979 71.7636C45.759 69.8059 44.8904 68.2501 43.6328 66.8239C41.9084 64.8403 41.8177 61.8713 43.3087 59.5506C44.6959 57.4114 47.5093 56.3353 49.9597 57.0095C54.5493 58.2671 56.1569 63.5438 53.0324 67.1221Z" fill="#0F2992"/>
<path d="M49.3373 51.0848C49.3373 51.5126 49.3633 51.9534 49.3373 52.3813C49.2984 52.9128 48.9484 53.2499 48.4946 53.2629C48.0149 53.2759 47.626 52.9258 47.6 52.3813C47.5741 51.4997 47.5741 50.618 47.6 49.7494C47.613 49.2178 47.976 48.8937 48.4427 48.8807C48.9354 48.8678 49.2984 49.1919 49.3373 49.7494C49.3633 50.1902 49.3373 50.644 49.3373 51.0848Z" fill="#0F2992"/>
<path d="M41.9603 70.4156C41.7788 70.7268 41.6751 70.9861 41.4936 71.1806C40.9491 71.751 40.3916 72.3085 39.8211 72.866C39.3414 73.3328 38.8358 73.3457 38.4598 72.9568C38.0968 72.5808 38.1357 72.0881 38.5765 71.6344C39.1469 71.038 39.7433 70.4545 40.3268 69.8841C40.612 69.6118 40.975 69.4951 41.3121 69.7155C41.5714 69.8582 41.7399 70.1563 41.9603 70.4156Z" fill="#0F2992"/>
<path d="M41.8437 55.4152C41.8307 56.1672 41.0528 56.6469 40.5601 56.232C39.7693 55.5708 39.0562 54.8188 38.3561 54.0539C38.0579 53.7298 38.1746 53.289 38.4987 52.9778C38.8099 52.6796 39.2247 52.5889 39.5359 52.8741C40.3008 53.5612 41.0139 54.3132 41.727 55.0652C41.8177 55.1689 41.8177 55.3504 41.8437 55.4152Z" fill="#0F2992"/>
<path d="M33.5331 28.5257C29.2029 28.4479 25.5986 31.9743 25.4949 36.3695C25.3912 40.7127 28.9176 44.3299 33.3646 44.4336C37.6819 44.5374 41.3251 40.972 41.4029 36.538C41.4806 32.2336 37.9153 28.6035 33.5331 28.5257ZM33.572 42.6704C30.266 42.8001 27.3878 40.0645 27.2711 36.6417C27.1544 33.2968 29.8381 30.4445 33.2609 30.3019C36.6447 30.1593 39.484 32.843 39.6396 36.3435C39.7822 39.6755 37.0337 42.5278 33.572 42.6704Z" fill="#0F2992"/>
<path d="M35.8409 38.8456C35.4779 39.2216 34.9593 39.2087 34.5055 38.7938C33.974 38.2752 33.4165 37.7825 32.9497 37.2121C32.7423 36.9657 32.6256 36.5768 32.5738 36.2397C32.5089 35.7341 32.5608 35.2025 32.5608 34.6839C32.5608 34.1523 32.5478 33.6078 32.5608 33.0762C32.5867 32.4539 32.9497 32.065 33.4554 32.078C33.974 32.078 34.3111 32.4669 34.324 33.1022C34.337 33.9708 34.3111 34.8265 34.35 35.6952C34.3629 35.9415 34.4796 36.2267 34.6352 36.4082C34.9723 36.8101 35.3871 37.1602 35.7502 37.5491C36.1521 37.977 36.178 38.4826 35.8409 38.8456Z" fill="#0F2992"/>
</svg>
