<svg width="101" height="34" viewBox="0 0 101 34" fill="none" xmlns="http://www.w3.org/2000/svg">
<path d="M39.3273 0.642822C41.0591 0.642822 42.3228 0.997758 43.1184 1.70763C43.9139 2.4175 44.3117 3.41194 44.3117 4.69093C44.3117 5.27229 44.2199 5.82611 44.0363 6.3524C43.8588 6.87256 43.5651 7.33459 43.1551 7.73848C42.7451 8.13626 42.2035 8.45142 41.5303 8.68396C40.8633 8.9165 40.0402 9.03278 39.0611 9.03278H37.6291V14.0631H35.426V0.642822H39.3273ZM39.1804 2.46952H37.6291V7.1969H38.8316C39.5231 7.1969 40.1106 7.11735 40.594 6.95824C41.0775 6.79301 41.4446 6.53293 41.6955 6.17799C41.9465 5.82305 42.0719 5.35491 42.0719 4.77354C42.0719 3.99636 41.8363 3.41806 41.3651 3.03864C40.9 2.65923 40.1718 2.46952 39.1804 2.46952Z" fill="white"/>
<path d="M48.8463 3.9015V9.08785C48.8463 9.25308 48.8402 9.46421 48.8279 9.72123C48.8218 9.97213 48.8096 10.2353 48.7912 10.5107C48.7729 10.7799 48.7545 11.0278 48.7361 11.2542C48.7178 11.4806 48.7025 11.6489 48.6902 11.7591L53.8032 3.9015H56.4285V14.0631H54.3631V8.9318C54.3631 8.66254 54.3692 8.35044 54.3815 7.99551C54.3998 7.64057 54.4182 7.29787 54.4365 6.96742C54.461 6.63696 54.4763 6.38606 54.4824 6.21471L49.3879 14.0631H46.7717V3.9015H48.8463Z" fill="white"/>
<path d="M61.6974 3.9015V7.98633H66.4524V3.9015H68.6187V14.0631H66.4524V9.67533H61.6974V14.0631H59.5311V3.9015H61.6974Z" fill="white"/>
<path d="M79.3769 5.59969H76.0356V14.0631H73.8877V5.59969H70.5647V3.9015H79.3769V5.59969Z" fill="white"/>
<path d="M85.3894 3.70874C86.2951 3.70874 87.0723 3.89538 87.721 4.26868C88.3697 4.64197 88.8684 5.17132 89.2172 5.85671C89.5661 6.54211 89.7405 7.36213 89.7405 8.31679V9.47339H82.9569C82.9814 10.4586 83.2445 11.2175 83.7463 11.7499C84.2542 12.2823 84.9641 12.5485 85.8759 12.5485C86.5246 12.5485 87.106 12.4873 87.62 12.3649C88.1402 12.2364 88.6757 12.0497 89.2264 11.805V13.5582C88.7185 13.7969 88.2014 13.9713 87.6751 14.0814C87.1488 14.1916 86.5185 14.2467 85.7841 14.2467C84.7867 14.2467 83.9085 14.0539 83.1497 13.6684C82.397 13.2767 81.8064 12.6953 81.378 11.9243C80.9558 11.1532 80.7447 10.1955 80.7447 9.05114C80.7447 7.91289 80.9374 6.946 81.323 6.15045C81.7085 5.3549 82.2501 4.74907 82.9477 4.33293C83.6454 3.9168 84.4593 3.70874 85.3894 3.70874ZM85.3894 5.33349C84.7102 5.33349 84.1594 5.55379 83.7371 5.9944C83.321 6.43501 83.0762 7.08063 83.0028 7.93125H87.6292C87.6231 7.42333 87.5374 6.97354 87.3722 6.58188C87.2131 6.19023 86.9683 5.88425 86.6378 5.66394C86.3135 5.44364 85.8974 5.33349 85.3894 5.33349Z" fill="white"/>
<path d="M94.422 8.86755L91.0256 3.9015H93.4857L95.808 7.47228L98.1396 3.9015H100.591L97.1758 8.86755L100.765 14.0631H98.2957L95.808 10.2536L93.3112 14.0631H90.8604L94.422 8.86755Z" fill="white"/>
<path d="M35.4619 21.0928V17.8537H36.7124C37.0028 17.8537 37.2401 17.8996 37.4244 17.9913C37.61 18.082 37.7473 18.2048 37.8364 18.3598C37.9256 18.5148 37.9702 18.6877 37.9702 18.8786C37.9702 19.0694 37.9256 19.2429 37.8364 19.3989C37.7485 19.555 37.6124 19.6794 37.428 19.7722C37.2437 19.8639 37.0076 19.9098 36.7197 19.9098H35.8233V19.5618H36.7052C36.904 19.5618 37.0636 19.5318 37.1841 19.4717C37.3046 19.4116 37.3919 19.3304 37.4461 19.2281C37.5015 19.1248 37.5292 19.0083 37.5292 18.8786C37.5292 18.7489 37.5015 18.6329 37.4461 18.5306C37.3919 18.4284 37.3039 18.3482 37.1823 18.2902C37.0606 18.2312 36.8992 18.2017 36.698 18.2017H35.9101V21.0928H35.4619Z" fill="white"/>
<path d="M42.1201 19.4733C42.1201 19.8149 42.0496 20.1101 41.9087 20.359C41.7677 20.6078 41.5743 20.7997 41.3286 20.9347C41.0828 21.0696 40.8021 21.1371 40.4865 21.1371C40.1708 21.1371 39.8901 21.0696 39.6444 20.9347C39.3986 20.7997 39.2052 20.6078 39.0643 20.359C38.9233 20.1101 38.8529 19.8149 38.8529 19.4733C38.8529 19.1317 38.9233 18.8364 39.0643 18.5876C39.2052 18.3387 39.3986 18.1468 39.6444 18.0119C39.8901 17.8769 40.1708 17.8094 40.4865 17.8094C40.8021 17.8094 41.0828 17.8769 41.3286 18.0119C41.5743 18.1468 41.7677 18.3387 41.9087 18.5876C42.0496 18.8364 42.1201 19.1317 42.1201 19.4733ZM41.6864 19.4733C41.6864 19.1928 41.6328 18.9561 41.5256 18.7631C41.4195 18.5702 41.2756 18.4242 41.0937 18.325C40.913 18.2259 40.7106 18.1764 40.4865 18.1764C40.2624 18.1764 40.0594 18.2259 39.8775 18.325C39.6968 18.4242 39.5528 18.5702 39.4456 18.7631C39.3396 18.9561 39.2866 19.1928 39.2866 19.4733C39.2866 19.7538 39.3396 19.9905 39.4456 20.1834C39.5528 20.3764 39.6968 20.5224 39.8775 20.6215C40.0594 20.7206 40.2624 20.7702 40.4865 20.7702C40.7106 20.7702 40.913 20.7206 41.0937 20.6215C41.2756 20.5224 41.4195 20.3764 41.5256 20.1834C41.6328 19.9905 41.6864 19.7538 41.6864 19.4733Z" fill="white"/>
<path d="M46.1571 18.8659H45.7089C45.6824 18.7531 45.636 18.654 45.5698 18.5686C45.5047 18.4832 45.4252 18.4115 45.3312 18.3535C45.2385 18.2945 45.1355 18.2502 45.0222 18.2207C44.909 18.1911 44.7909 18.1764 44.668 18.1764C44.4439 18.1764 44.2409 18.2259 44.059 18.325C43.8783 18.4242 43.7344 18.5702 43.6271 18.7631C43.5211 18.9561 43.4681 19.1928 43.4681 19.4733C43.4681 19.7538 43.5211 19.9905 43.6271 20.1834C43.7344 20.3764 43.8783 20.5224 44.059 20.6215C44.2409 20.7206 44.4439 20.7702 44.668 20.7702C44.7909 20.7702 44.909 20.7554 45.0222 20.7259C45.1355 20.6964 45.2385 20.6526 45.3312 20.5946C45.4252 20.5356 45.5047 20.4634 45.5698 20.378C45.636 20.2915 45.6824 20.1924 45.7089 20.0806H46.1571C46.1233 20.2461 46.0619 20.3943 45.9728 20.525C45.8836 20.6558 45.7728 20.767 45.6402 20.8588C45.5077 20.9494 45.3589 21.0185 45.1939 21.0659C45.03 21.1134 44.8548 21.1371 44.668 21.1371C44.3524 21.1371 44.0717 21.0696 43.8259 20.9347C43.5802 20.7997 43.3868 20.6078 43.2458 20.359C43.1049 20.1101 43.0344 19.8149 43.0344 19.4733C43.0344 19.1317 43.1049 18.8364 43.2458 18.5876C43.3868 18.3387 43.5802 18.1468 43.8259 18.0119C44.0717 17.8769 44.3524 17.8094 44.668 17.8094C44.8548 17.8094 45.03 17.8332 45.1939 17.8806C45.3589 17.9281 45.5077 17.9976 45.6402 18.0894C45.7728 18.1801 45.8836 18.2908 45.9728 18.4215C46.0619 18.5512 46.1233 18.6993 46.1571 18.8659Z" fill="white"/>
<path d="M50.1647 18.8659H49.7165C49.69 18.7531 49.6436 18.654 49.5774 18.5686C49.5123 18.4832 49.4328 18.4115 49.3389 18.3535C49.2461 18.2945 49.1431 18.2502 49.0298 18.2207C48.9166 18.1911 48.7985 18.1764 48.6756 18.1764C48.4516 18.1764 48.2486 18.2259 48.0667 18.325C47.8859 18.4242 47.742 18.5702 47.6348 18.7631C47.5287 18.9561 47.4757 19.1928 47.4757 19.4733C47.4757 19.7538 47.5287 19.9905 47.6348 20.1834C47.742 20.3764 47.8859 20.5224 48.0667 20.6215C48.2486 20.7206 48.4516 20.7702 48.6756 20.7702C48.7985 20.7702 48.9166 20.7554 49.0298 20.7259C49.1431 20.6964 49.2461 20.6526 49.3389 20.5946C49.4328 20.5356 49.5123 20.4634 49.5774 20.378C49.6436 20.2915 49.69 20.1924 49.7165 20.0806H50.1647C50.131 20.2461 50.0695 20.3943 49.9804 20.525C49.8912 20.6558 49.7804 20.767 49.6479 20.8588C49.5153 20.9494 49.3666 21.0185 49.2015 21.0659C49.0377 21.1134 48.8624 21.1371 48.6756 21.1371C48.36 21.1371 48.0793 21.0696 47.8335 20.9347C47.5878 20.7997 47.3944 20.6078 47.2535 20.359C47.1125 20.1101 47.042 19.8149 47.042 19.4733C47.042 19.1317 47.1125 18.8364 47.2535 18.5876C47.3944 18.3387 47.5878 18.1468 47.8335 18.0119C48.0793 17.8769 48.36 17.8094 48.6756 17.8094C48.8624 17.8094 49.0377 17.8332 49.2015 17.8806C49.3666 17.9281 49.5153 17.9976 49.6479 18.0894C49.7804 18.1801 49.8912 18.2908 49.9804 18.4215C50.0695 18.5512 50.131 18.6993 50.1647 18.8659Z" fill="white"/>
<path d="M51.1942 17.8537H51.6351V20.4033H51.6713L53.6952 17.8537H54.1289V21.0928H53.6808V18.5496H53.6446L51.6279 21.0928H51.1942V17.8537Z" fill="white"/>
<path d="M55.331 17.8537H55.772V20.4033H55.8081L57.8321 17.8537H58.2658V21.0928H57.8176V18.5496H57.7815L55.7647 21.0928H55.331V17.8537ZM57.1526 17.0439H57.5502C57.5502 17.2148 57.4827 17.3545 57.3478 17.4631C57.2128 17.5717 57.0297 17.626 56.7984 17.626C56.5707 17.626 56.3894 17.5717 56.2545 17.4631C56.1207 17.3545 56.0539 17.2148 56.0539 17.0439H56.4514C56.4514 17.1262 56.4773 17.1984 56.5291 17.2606C56.5822 17.3228 56.6719 17.3539 56.7984 17.3539C56.9249 17.3539 57.0153 17.3228 57.0695 17.2606C57.1249 17.1984 57.1526 17.1262 57.1526 17.0439Z" fill="white"/>
<path d="M62.446 18.8659H61.9978C61.9713 18.7531 61.9249 18.654 61.8587 18.5686C61.7936 18.4832 61.7141 18.4115 61.6201 18.3535C61.5274 18.2945 61.4243 18.2502 61.3111 18.2207C61.1979 18.1911 61.0798 18.1764 60.9569 18.1764C60.7328 18.1764 60.5298 18.2259 60.3479 18.325C60.1672 18.4242 60.0232 18.5702 59.916 18.7631C59.81 18.9561 59.757 19.1928 59.757 19.4733C59.757 19.7538 59.81 19.9905 59.916 20.1834C60.0232 20.3764 60.1672 20.5224 60.3479 20.6215C60.5298 20.7206 60.7328 20.7702 60.9569 20.7702C61.0798 20.7702 61.1979 20.7554 61.3111 20.7259C61.4243 20.6964 61.5274 20.6526 61.6201 20.5946C61.7141 20.5356 61.7936 20.4634 61.8587 20.378C61.9249 20.2915 61.9713 20.1924 61.9978 20.0806H62.446C62.4122 20.2461 62.3508 20.3943 62.2616 20.525C62.1725 20.6558 62.0617 20.767 61.9291 20.8588C61.7966 20.9494 61.6478 21.0185 61.4828 21.0659C61.3189 21.1134 61.1436 21.1371 60.9569 21.1371C60.6413 21.1371 60.3606 21.0696 60.1148 20.9347C59.869 20.7997 59.6757 20.6078 59.5347 20.359C59.3938 20.1101 59.3233 19.8149 59.3233 19.4733C59.3233 19.1317 59.3938 18.8364 59.5347 18.5876C59.6757 18.3387 59.869 18.1468 60.1148 18.0119C60.3606 17.8769 60.6413 17.8094 60.9569 17.8094C61.1436 17.8094 61.3189 17.8332 61.4828 17.8806C61.6478 17.9281 61.7966 17.9976 61.9291 18.0894C62.0617 18.1801 62.1725 18.2908 62.2616 18.4215C62.3508 18.5512 62.4122 18.6993 62.446 18.8659Z" fill="white"/>
<path d="M65.6512 21.0928L64.379 19.6061H63.9236V21.0928H63.4755V17.8537H63.9236V19.2582H64.1188L65.6006 17.8537H66.1355L64.6393 19.2772L66.1861 21.0928H65.6512Z" fill="white"/>
<path d="M67.0706 17.8537H67.5116V20.4033H67.5477L69.5717 17.8537H70.0054V21.0928H69.5572V18.5496H69.5211L67.5043 21.0928H67.0706V17.8537Z" fill="white"/>
<path d="M71.2075 21.0928V17.8537H73.441V18.2017H71.6556V19.2961H73.3254V19.6441H71.6556V20.7449H73.4699V21.0928H71.2075Z" fill="white"/>
<path d="M35.4619 24.1172H35.9014V26.6866H35.9375L37.955 24.1172H38.3873V27.3815H37.9405V24.8185H37.9045L35.8942 27.3815H35.4619V24.1172Z" fill="white"/>
<path d="M39.5855 27.3815V24.1172H40.0323V25.5708H41.9993V24.1172H42.4461V27.3815H41.9993V25.9215H40.0323V27.3815H39.5855Z" fill="white"/>
<path d="M44.9129 24.5061H45.4965C45.7703 24.5061 46.0135 24.5603 46.2261 24.6687C46.4386 24.7771 46.6056 24.928 46.7269 25.1214C46.8481 25.3148 46.9088 25.539 46.9088 25.794C46.9088 26.049 46.8481 26.2738 46.7269 26.4682C46.6056 26.6627 46.4386 26.8146 46.2261 26.9241C46.0135 27.0335 45.7703 27.0883 45.4965 27.0883H44.9129C44.6391 27.0883 44.3959 27.0341 44.1834 26.9257C43.9708 26.8173 43.8039 26.6664 43.6826 26.473C43.5613 26.2796 43.5007 26.0554 43.5007 25.8004C43.5007 25.5453 43.5613 25.3206 43.6826 25.1261C43.8039 24.9317 43.9708 24.7797 44.1834 24.6703C44.3959 24.5608 44.6391 24.5061 44.9129 24.5061ZM44.9129 24.8568C44.704 24.8568 44.5274 24.8956 44.3833 24.9731C44.2404 25.0507 44.1317 25.1601 44.0573 25.3015C43.984 25.4428 43.9474 25.6091 43.9474 25.8004C43.9474 25.9895 43.984 26.1542 44.0573 26.2945C44.1317 26.4347 44.2404 26.5437 44.3833 26.6212C44.5274 26.6988 44.704 26.7376 44.9129 26.7376H45.4965C45.7055 26.7376 45.8814 26.6988 46.0243 26.6212C46.1684 26.5437 46.2771 26.4342 46.3504 26.2929C46.4248 26.1516 46.4621 25.9853 46.4621 25.794C46.4621 25.6048 46.4248 25.4401 46.3504 25.2999C46.2771 25.1596 46.1684 25.0507 46.0243 24.9731C45.8814 24.8956 45.7055 24.8568 45.4965 24.8568H44.9129ZM45.4317 24.0598V27.5154H44.985V24.0598H45.4317Z" fill="white"/>
<path d="M51.0743 25.7494C51.0743 26.0937 51.004 26.3912 50.8635 26.642C50.723 26.8927 50.5303 27.0861 50.2853 27.2221C50.0403 27.3582 49.7605 27.4262 49.4459 27.4262C49.1313 27.4262 48.8515 27.3582 48.6065 27.2221C48.3615 27.0861 48.1688 26.8927 48.0282 26.642C47.8877 26.3912 47.8175 26.0937 47.8175 25.7494C47.8175 25.4051 47.8877 25.1075 48.0282 24.8568C48.1688 24.606 48.3615 24.4126 48.6065 24.2766C48.8515 24.1406 49.1313 24.0726 49.4459 24.0726C49.7605 24.0726 50.0403 24.1406 50.2853 24.2766C50.5303 24.4126 50.723 24.606 50.8635 24.8568C51.004 25.1075 51.0743 25.4051 51.0743 25.7494ZM50.642 25.7494C50.642 25.4667 50.5885 25.2282 50.4817 25.0337C50.376 24.8392 50.2325 24.6921 50.0511 24.5922C49.871 24.4923 49.6693 24.4424 49.4459 24.4424C49.2225 24.4424 49.0202 24.4923 48.8388 24.5922C48.6587 24.6921 48.5152 24.8392 48.4083 25.0337C48.3027 25.2282 48.2498 25.4667 48.2498 25.7494C48.2498 26.032 48.3027 26.2706 48.4083 26.465C48.5152 26.6595 48.6587 26.8067 48.8388 26.9066C49.0202 27.0064 49.2225 27.0564 49.4459 27.0564C49.6693 27.0564 49.871 27.0064 50.0511 26.9066C50.2325 26.8067 50.376 26.6595 50.4817 26.465C50.5885 26.2706 50.642 26.032 50.642 25.7494Z" fill="white"/>
<path d="M52.1298 27.3815V24.1172H53.3763C53.6657 24.1172 53.9023 24.1634 54.0861 24.2559C54.271 24.3472 54.4079 24.471 54.4968 24.6272C54.5856 24.7835 54.6301 24.9577 54.6301 25.15C54.6301 25.3424 54.5856 25.5172 54.4968 25.6744C54.4091 25.8317 54.2734 25.9571 54.0897 26.0506C53.9059 26.1431 53.6705 26.1893 53.3835 26.1893H52.4901V25.8386H53.3691C53.5673 25.8386 53.7264 25.8083 53.8465 25.7478C53.9666 25.6872 54.0536 25.6054 54.1077 25.5023C54.1629 25.3982 54.1905 25.2808 54.1905 25.15C54.1905 25.0193 54.1629 24.9025 54.1077 24.7994C54.0536 24.6963 53.966 24.6156 53.8447 24.5571C53.7234 24.4976 53.5625 24.4679 53.3619 24.4679H52.5765V27.3815H52.1298Z" fill="white"/>
<path d="M55.6541 24.1172H56.1872L57.441 26.8269H57.4842L58.7379 24.1172H59.2711V27.3815H58.8532V24.9014H58.8172L57.6643 27.3815H57.2608L56.108 24.9014H56.072V27.3815H55.6541V24.1172Z" fill="white"/>
<path d="M60.6225 27.3815H60.1542L61.5088 24.1172H61.9699L63.3245 27.3815H62.8562L61.7537 24.6336H61.7249L60.6225 27.3815ZM60.7954 26.1064H62.6832V26.4571H60.7954V26.1064Z" fill="white"/>
<path d="M67.3378 27.0054L67.2874 28.153H66.8262V27.3815H66.5668V27.0054H67.3378ZM64.2035 27.3815V24.1172H64.6286V27.0181H66.5308V24.1172H66.9559V27.3815H64.2035Z" fill="white"/>
<path d="M68.3172 24.1172H68.7567V26.6866H68.7928L70.8103 24.1172H71.2426V27.3815H70.7958V24.8185H70.7598L68.7495 27.3815H68.3172V24.1172Z" fill="white"/>
<path d="M75.5535 25.7494C75.5535 26.0937 75.4833 26.3912 75.3428 26.642C75.2023 26.8927 75.0095 27.0861 74.7645 27.2221C74.5196 27.3582 74.2398 27.4262 73.9251 27.4262C73.6105 27.4262 73.3307 27.3582 73.0857 27.2221C72.8407 27.0861 72.648 26.8927 72.5075 26.642C72.367 26.3912 72.2967 26.0937 72.2967 25.7494C72.2967 25.4051 72.367 25.1075 72.5075 24.8568C72.648 24.606 72.8407 24.4126 73.0857 24.2766C73.3307 24.1406 73.6105 24.0726 73.9251 24.0726C74.2398 24.0726 74.5196 24.1406 74.7645 24.2766C75.0095 24.4126 75.2023 24.606 75.3428 24.8568C75.4833 25.1075 75.5535 25.4051 75.5535 25.7494ZM75.1212 25.7494C75.1212 25.4667 75.0678 25.2282 74.9609 25.0337C74.8552 24.8392 74.7117 24.6921 74.5304 24.5922C74.3502 24.4923 74.1485 24.4424 73.9251 24.4424C73.7018 24.4424 73.4994 24.4923 73.3181 24.5922C73.1379 24.6921 72.9944 24.8392 72.8876 25.0337C72.7819 25.2282 72.729 25.4667 72.729 25.7494C72.729 26.032 72.7819 26.2706 72.8876 26.465C72.9944 26.6595 73.1379 26.8067 73.3181 26.9066C73.4994 27.0064 73.7018 27.0564 73.9251 27.0564C74.1485 27.0564 74.3502 27.0064 74.5304 26.9066C74.7117 26.8067 74.8552 26.6595 74.9609 26.465C75.0678 26.2706 75.1212 26.032 75.1212 25.7494Z" fill="white"/>
<path d="M76.609 27.3815V24.1172H77.0558V25.5708H79.0228V24.1172H79.4696V27.3815H79.0228V25.9215H77.0558V27.3815H76.609Z" fill="white"/>
<path d="M80.6683 27.3815V24.1172H81.115V25.5708H83.0821V24.1172H83.5288V27.3815H83.0821V25.9215H81.115V27.3815H80.6683Z" fill="white"/>
<path d="M85.059 25.488H86.1109C86.3751 25.488 86.5979 25.5262 86.7792 25.6027C86.9618 25.6792 87.0999 25.7871 87.1935 25.9263C87.2884 26.0655 87.3358 26.2297 87.3358 26.4188C87.3358 26.608 87.2884 26.7748 87.1935 26.9193C87.0999 27.0638 86.9618 27.177 86.7792 27.2588C86.5979 27.3406 86.3751 27.3815 86.1109 27.3815H84.7275V24.1172H85.1742V27.0373H86.1109C86.2791 27.0373 86.4214 27.0075 86.5379 26.948C86.6555 26.8874 86.7444 26.8099 86.8045 26.7153C86.8657 26.6196 86.8963 26.5187 86.8963 26.4124C86.8963 26.2562 86.8285 26.1218 86.6928 26.0092C86.5571 25.8955 86.3631 25.8386 86.1109 25.8386H85.059V25.488ZM88.1428 24.1172V27.3815H87.6961V24.1172H88.1428Z" fill="white"/>
<path d="M89.3416 27.3815V24.1172H91.568V24.4679H89.7883V25.5708H91.4527V25.9215H89.7883V27.0309H91.5968V27.3815H89.3416Z" fill="white"/>
<path d="M35.4619 30.905V30.5381H38.1987V30.905H37.0513V33.9532H36.6094V30.905H35.4619Z" fill="white"/>
<path d="M39.1818 33.9532V30.5381H41.384V30.905H39.6236V32.0589H41.27V32.4258H39.6236V33.5863H41.4125V33.9532H39.1818Z" fill="white"/>
<path d="M42.6953 30.5381L43.6361 31.9589H43.6646L44.6054 30.5381H45.1257L43.9782 32.2457L45.1257 33.9532H44.6054L43.6646 32.5592H43.6361L42.6953 33.9532H42.1751L43.351 32.2457L42.1751 30.5381H42.6953Z" fill="white"/>
<path d="M46.0018 33.9532V30.5381H46.4437V32.0589H48.3894V30.5381H48.8313V33.9532H48.3894V32.4258H46.4437V33.9532H46.0018Z" fill="white"/>
<path d="M53.0959 32.2457C53.0959 32.6059 53.0264 32.9171 52.8874 33.1795C52.7484 33.4418 52.5578 33.6442 52.3155 33.7864C52.0732 33.9287 51.7964 33.9999 51.4852 33.9999C51.1739 33.9999 50.8972 33.9287 50.6549 33.7864C50.4125 33.6442 50.2219 33.4418 50.0829 33.1795C49.9439 32.9171 49.8744 32.6059 49.8744 32.2457C49.8744 31.8855 49.9439 31.5742 50.0829 31.3119C50.2219 31.0495 50.4125 30.8472 50.6549 30.7049C50.8972 30.5626 51.1739 30.4915 51.4852 30.4915C51.7964 30.4915 52.0732 30.5626 52.3155 30.7049C52.5578 30.8472 52.7484 31.0495 52.8874 31.3119C53.0264 31.5742 53.0959 31.8855 53.0959 32.2457ZM52.6683 32.2457C52.6683 31.95 52.6154 31.7004 52.5097 31.497C52.4052 31.2935 52.2632 31.1396 52.0838 31.0351C51.9057 30.9306 51.7061 30.8783 51.4852 30.8783C51.2642 30.8783 51.0641 30.9306 50.8847 31.0351C50.7065 31.1396 50.5646 31.2935 50.4589 31.497C50.3543 31.7004 50.3021 31.95 50.3021 32.2457C50.3021 32.5414 50.3543 32.7909 50.4589 32.9944C50.5646 33.1978 50.7065 33.3518 50.8847 33.4563C51.0641 33.5608 51.2642 33.613 51.4852 33.613C51.7061 33.613 51.9057 33.5608 52.0838 33.4563C52.2632 33.3518 52.4052 33.1978 52.5097 32.9944C52.6154 32.7909 52.6683 32.5414 52.6683 32.2457Z" fill="white"/>
<path d="M53.8263 33.9532V33.573H53.9333C54.0853 33.573 54.2035 33.5274 54.2878 33.4363C54.3722 33.3451 54.4327 33.1978 54.4696 32.9944C54.5076 32.7909 54.5331 32.5214 54.5462 32.1856L54.6103 30.5381H56.834V33.9532H56.3921V30.905H55.0308L54.9738 32.2657C54.9596 32.6236 54.9245 32.9282 54.8687 33.1795C54.8129 33.4307 54.7149 33.6225 54.5747 33.7548C54.4345 33.8871 54.2302 33.9532 53.9618 33.9532H53.8263Z" fill="white"/>
<path d="M61.0968 32.2457C61.0968 32.6059 61.0273 32.9171 60.8884 33.1795C60.7494 33.4418 60.5587 33.6442 60.3164 33.7864C60.0741 33.9287 59.7973 33.9999 59.4861 33.9999C59.1749 33.9999 58.8981 33.9287 58.6558 33.7864C58.4135 33.6442 58.2228 33.4418 58.0839 33.1795C57.9449 32.9171 57.8754 32.6059 57.8754 32.2457C57.8754 31.8855 57.9449 31.5742 58.0839 31.3119C58.2228 31.0495 58.4135 30.8472 58.6558 30.7049C58.8981 30.5626 59.1749 30.4915 59.4861 30.4915C59.7973 30.4915 60.0741 30.5626 60.3164 30.7049C60.5587 30.8472 60.7494 31.0495 60.8884 31.3119C61.0273 31.5742 61.0968 31.8855 61.0968 32.2457ZM60.6692 32.2457C60.6692 31.95 60.6163 31.7004 60.5106 31.497C60.4061 31.2935 60.2641 31.1396 60.0848 31.0351C59.9066 30.9306 59.707 30.8783 59.4861 30.8783C59.2652 30.8783 59.065 30.9306 58.8856 31.0351C58.7075 31.1396 58.5655 31.2935 58.4598 31.497C58.3553 31.7004 58.303 31.95 58.303 32.2457C58.303 32.5414 58.3553 32.7909 58.4598 32.9944C58.5655 33.1978 58.7075 33.3518 58.8856 33.4563C59.065 33.5608 59.2652 33.613 59.4861 33.613C59.707 33.613 59.9066 33.5608 60.0848 33.4563C60.2641 33.3518 60.4061 33.1978 60.5106 32.9944C60.6163 32.7909 60.6692 32.5414 60.6692 32.2457Z" fill="white"/>
<path d="M64.3432 30.5381V30.905H62.5828V33.9532H62.1409V30.5381H64.3432Z" fill="white"/>
<path d="M65.328 30.5381H65.7627V33.2262H65.7984L67.7939 30.5381H68.2216V33.9532H67.7797V31.2718H67.7441L65.7556 33.9532H65.328V30.5381Z" fill="white"/>
<path d="M69.4068 30.5381H69.8416V33.2262H69.8772L71.8728 30.5381H72.3004V33.9532H71.8586V31.2718H71.8229L69.8345 33.9532H69.4068V30.5381Z" fill="white"/>
<path d="M31.1041 0L16.9235 20.6692H10.2502L12.3263 17.6329L12.3637 17.5879L24.4309 0H31.1041Z" fill="#A51922"/>
<path d="M17.6999 1.98413L6.6779 18.0516H0L0.857583 16.7966L0.890387 16.7516L11.0267 1.98413H17.6999Z" fill="white"/>
</svg>
