<svg width="111" height="24" viewBox="0 0 111 24" fill="none" xmlns="http://www.w3.org/2000/svg">
<path d="M43.3221 5.4729C45.2299 5.4729 46.6219 5.86389 47.4983 6.64586C48.3746 7.42784 48.8128 8.52327 48.8128 9.93218C48.8128 10.5726 48.7117 11.1827 48.5095 11.7624C48.314 12.3354 47.9904 12.8444 47.5387 13.2893C47.0871 13.7274 46.4905 14.0746 45.749 14.3308C45.0142 14.5869 44.1075 14.715 43.0289 14.715H41.4515V20.2563H39.0247V5.4729H43.3221ZM43.1604 7.48514H41.4515V12.6927H42.7761C43.5379 12.6927 44.185 12.605 44.7176 12.4298C45.2501 12.2478 45.6546 11.9613 45.931 11.5703C46.2074 11.1793 46.3456 10.6636 46.3456 10.0232C46.3456 9.16705 46.086 8.53001 45.567 8.11206C45.0546 7.69411 44.2524 7.48514 43.1604 7.48514Z" fill="white"/>
<path d="M53.808 9.06257V14.7757C53.808 14.9577 53.8013 15.1903 53.7878 15.4734C53.7811 15.7498 53.7676 16.0397 53.7473 16.343C53.7271 16.6396 53.7069 16.9126 53.6867 17.1621C53.6665 17.4115 53.6496 17.5969 53.6361 17.7182L59.2684 9.06257H62.1603V20.2563H59.8852V14.6038C59.8852 14.3072 59.8919 13.9634 59.9054 13.5724C59.9256 13.1814 59.9458 12.8039 59.9661 12.4399C59.993 12.0759 60.0099 11.7995 60.0166 11.6107L54.4046 20.2563H51.5228V9.06257H53.808Z" fill="white"/>
<path d="M67.9645 9.06257V13.5623H73.2023V9.06257H75.5887V20.2563H73.2023V15.4228H67.9645V20.2563H65.5781V9.06257H67.9645Z" fill="white"/>
<path d="M87.4397 10.9332H83.759V20.2563H81.3928V10.9332H77.7324V9.06257H87.4397V10.9332Z" fill="white"/>
<path d="M94.0629 8.85022C95.0605 8.85022 95.9167 9.05582 96.6312 9.46704C97.3458 9.87825 97.8952 10.4614 98.2794 11.2164C98.6637 11.9714 98.8558 12.8747 98.8558 13.9263V15.2004H91.3832C91.4102 16.2857 91.7001 17.1216 92.2528 17.7081C92.8124 18.2946 93.5943 18.5878 94.5988 18.5878C95.3133 18.5878 95.9538 18.5204 96.52 18.3856C97.093 18.244 97.6829 18.0384 98.2896 17.7688V19.7001C97.73 19.963 97.1604 20.1551 96.5807 20.2765C96.0009 20.3978 95.3066 20.4585 94.4977 20.4585C93.3988 20.4585 92.4315 20.2461 91.5956 19.8215C90.7664 19.39 90.1159 18.7496 89.644 17.9002C89.1789 17.0508 88.9463 15.9958 88.9463 14.7352C88.9463 13.4814 89.1587 12.4163 89.5834 11.5399C90.008 10.6636 90.6046 9.99622 91.3731 9.53782C92.1416 9.07942 93.0382 8.85022 94.0629 8.85022ZM94.0629 10.64C93.3146 10.64 92.7079 10.8827 92.2427 11.368C91.7843 11.8534 91.5147 12.5646 91.4338 13.5016H96.5301C96.5234 12.9421 96.429 12.4466 96.247 12.0152C96.0717 11.5838 95.8021 11.2467 95.438 11.004C95.0808 10.7613 94.6224 10.64 94.0629 10.64Z" fill="white"/>
<path d="M104.013 14.533L100.271 9.06257H102.981L105.54 12.996L108.108 9.06257H110.808L107.046 14.533L111 20.2563H108.28L105.54 16.0599L102.789 20.2563H100.089L104.013 14.533Z" fill="white"/>
<path d="M34.2631 0.000244141L18.6419 23.7211H11.2908L13.5777 20.2366L13.619 20.1849L26.912 0.000244141H34.2631Z" fill="#A51922"/>
<path d="M19.4981 2.27759L7.3563 20.7174H0L0.944705 19.2771L0.980841 19.2255L12.1469 2.27759H19.4981Z" fill="white"/>
</svg>
