<svg width="111" height="24" viewBox="0 0 111 24" fill="none" xmlns="http://www.w3.org/2000/svg">
<path d="M43.3221 8.4729C45.2299 8.4729 46.6219 8.86389 47.4983 9.64586C48.3746 10.4278 48.8128 11.5233 48.8128 12.9322C48.8128 13.5726 48.7117 14.1827 48.5095 14.7624C48.314 15.3354 47.9904 15.8444 47.5387 16.2893C47.0871 16.7274 46.4905 17.0746 45.749 17.3308C45.0142 17.5869 44.1075 17.715 43.0289 17.715H41.4515V23.2563H39.0247V8.4729H43.3221ZM43.1604 10.4851H41.4515V15.6927H42.7761C43.5379 15.6927 44.185 15.605 44.7176 15.4298C45.2501 15.2478 45.6546 14.9613 45.931 14.5703C46.2074 14.1793 46.3456 13.6636 46.3456 13.0232C46.3456 12.1671 46.086 11.53 45.567 11.1121C45.0546 10.6941 44.2524 10.4851 43.1604 10.4851Z" fill="#2D2D2D"/>
<path d="M53.808 12.0626V17.7757C53.808 17.9577 53.8013 18.1903 53.7878 18.4734C53.7811 18.7498 53.7676 19.0397 53.7473 19.343C53.7271 19.6396 53.7069 19.9126 53.6867 20.1621C53.6665 20.4115 53.6496 20.5969 53.6361 20.7182L59.2684 12.0626H62.1603V23.2563H59.8852V17.6038C59.8852 17.3072 59.8919 16.9634 59.9054 16.5724C59.9256 16.1814 59.9458 15.8039 59.9661 15.4399C59.993 15.0759 60.0099 14.7995 60.0166 14.6107L54.4046 23.2563H51.5228V12.0626H53.808Z" fill="#2D2D2D"/>
<path d="M67.9645 12.0626V16.5623H73.2023V12.0626H75.5887V23.2563H73.2023V18.4228H67.9645V23.2563H65.5781V12.0626H67.9645Z" fill="#2D2D2D"/>
<path d="M87.4397 13.9332H83.759V23.2563H81.3928V13.9332H77.7324V12.0626H87.4397V13.9332Z" fill="#2D2D2D"/>
<path d="M94.0629 11.8502C95.0605 11.8502 95.9167 12.0558 96.6312 12.467C97.3458 12.8782 97.8952 13.4614 98.2795 14.2164C98.6637 14.9714 98.8558 15.8747 98.8558 16.9263V18.2004H91.3832C91.4102 19.2857 91.7001 20.1216 92.2528 20.7081C92.8124 21.2946 93.5943 21.5878 94.5988 21.5878C95.3133 21.5878 95.9538 21.5204 96.52 21.3856C97.093 21.244 97.6829 21.0384 98.2896 20.7688V22.7001C97.73 22.963 97.1604 23.1551 96.5807 23.2765C96.0009 23.3978 95.3066 23.4585 94.4977 23.4585C93.3989 23.4585 92.4315 23.2461 91.5956 22.8215C90.7664 22.39 90.1159 21.7496 89.644 20.9002C89.1789 20.0508 88.9463 18.9958 88.9463 17.7352C88.9463 16.4814 89.1587 15.4163 89.5834 14.5399C90.008 13.6636 90.6046 12.9962 91.3731 12.5378C92.1416 12.0794 93.0382 11.8502 94.0629 11.8502ZM94.0629 13.64C93.3146 13.64 92.7079 13.8827 92.2427 14.368C91.7843 14.8534 91.5147 15.5646 91.4338 16.5016H96.5301C96.5234 15.9421 96.429 15.4466 96.247 15.0152C96.0717 14.5838 95.8021 14.2467 95.4381 14.004C95.0808 13.7613 94.6224 13.64 94.0629 13.64Z" fill="#2D2D2D"/>
<path d="M104.013 17.533L100.271 12.0626H102.981L105.54 15.996L108.108 12.0626H110.808L107.046 17.533L111 23.2563H108.28L105.54 19.0599L102.789 23.2563H100.089L104.013 17.533Z" fill="#2D2D2D"/>
<path d="M32.2631 0.753906L16.6419 22.8603H9.29077L11.5777 19.6129L11.619 19.5648L24.912 0.753906H32.2631Z" fill="#A51922"/>
<path d="M19.4981 2.87622L7.3563 20.0609H0L0.944705 18.7187L0.980841 18.6706L12.1469 2.87622H19.4981Z" fill="#0F2992"/>
</svg>
