<svg width="71" height="52" viewBox="0 0 71 52" fill="none" xmlns="http://www.w3.org/2000/svg">
<path d="M0.25 51.0625V36.9375C2.125 36.9375 3.75 36.8125 5.125 36.5625C6.54167 36.3125 7.64583 35.8958 8.4375 35.3125C9.3125 34.6458 10 34 10.5 33.375C11 32.5417 11.375 31.5625 11.625 30.4375C11.875 29.1042 12 28 12 27.125C12.0417 26.7917 12.0625 26.2708 12.0625 25.5625C12.1042 24.8958 12.125 24.0417 12.125 23H0.375V0.1875H32.25C33.2083 7.10417 33.6875 12.875 33.6875 17.5C33.6875 29.0833 31 37.5625 25.625 42.9375C20.1667 48.3542 11.7083 51.0625 0.25 51.0625Z" fill="#0F2992"/>
<path d="M37.5 51.0625V36.9375C39.375 36.9375 41 36.8125 42.375 36.5625C43.7917 36.3125 44.8958 35.8958 45.6875 35.3125C46.5625 34.6458 47.25 34 47.75 33.375C48.25 32.5417 48.625 31.5625 48.875 30.4375C49.125 29.1042 49.25 28 49.25 27.125C49.2917 26.7917 49.3125 26.2708 49.3125 25.5625C49.3542 24.8958 49.375 24.0417 49.375 23H37.625V0.1875H69.5C70.4583 7.10417 70.9375 12.875 70.9375 17.5C70.9375 29.0833 68.25 37.5625 62.875 42.9375C57.4167 48.3542 48.9583 51.0625 37.5 51.0625Z" fill="#0F2992"/>
</svg>
