<svg width="148" height="50" viewBox="0 0 148 50" fill="none" xmlns="http://www.w3.org/2000/svg">
<path d="M54.9476 0C57.5434 0 59.4375 0.532009 60.63 1.59603C61.8224 2.66005 62.4186 4.15059 62.4186 6.06766C62.4186 6.93905 62.281 7.76917 62.0059 8.55801C61.7398 9.33768 61.2996 10.0302 60.685 10.6356C60.0704 11.2318 59.2587 11.7042 58.2497 12.0528C57.2499 12.4013 56.0162 12.5756 54.5485 12.5756H52.4022V20.1154H49.1V0L54.9476 0ZM54.7274 2.73801H52.4022V9.82382H54.2046C55.2411 9.82382 56.1216 9.70458 56.8463 9.46609C57.5709 9.21843 58.1213 8.8286 58.4973 8.29659C58.8734 7.76458 59.0615 7.06288 59.0615 6.19148C59.0615 5.02657 58.7083 4.15976 58.002 3.59106C57.3049 3.02236 56.2134 2.73801 54.7274 2.73801Z" fill="#2D2D2D"/>
<path d="M69.2155 4.88439V12.6581C69.2155 12.9058 69.2063 13.2223 69.188 13.6075C69.1788 13.9836 69.1605 14.378 69.1329 14.7908C69.1054 15.1944 69.0779 15.5659 69.0504 15.9052C69.0229 16.2446 68.9999 16.4969 68.9816 16.662L76.6453 4.88439H80.5803V20.1154H77.4846V12.4242C77.4846 12.0207 77.4937 11.5529 77.5121 11.0208C77.5396 10.4888 77.5671 9.97517 77.5946 9.47985C77.6313 8.98453 77.6543 8.60846 77.6634 8.35162L70.0273 20.1154H66.106V4.88439H69.2155Z" fill="#2D2D2D"/>
<path d="M88.4779 4.88439V11.0071H95.605V4.88439H98.8521V20.1154H95.605V13.5387H88.4779V20.1154H85.2308V4.88439H88.4779Z" fill="#2D2D2D"/>
<path d="M114.977 7.42978H109.969V20.1154H106.75V7.42978H101.769V4.88439H114.977V7.42978Z" fill="#2D2D2D"/>
<path d="M123.99 4.59546C125.347 4.59546 126.512 4.87522 127.484 5.43475C128.457 5.99427 129.204 6.7877 129.727 7.81503C130.25 8.84236 130.511 10.0715 130.511 11.5024V13.236H120.343C120.38 14.7128 120.775 15.8502 121.527 16.6482C122.288 17.4462 123.352 17.8452 124.719 17.8452C125.691 17.8452 126.562 17.7535 127.333 17.5701C128.113 17.3774 128.915 17.0977 129.741 16.7308V19.3587C128.979 19.7164 128.204 19.9779 127.415 20.143C126.627 20.3081 125.682 20.3906 124.581 20.3906C123.086 20.3906 121.77 20.1017 120.632 19.5238C119.504 18.9368 118.619 18.0654 117.977 16.9096C117.344 15.7539 117.028 14.3184 117.028 12.6031C117.028 10.897 117.316 9.44775 117.894 8.25531C118.472 7.06288 119.284 6.15479 120.33 5.53106C121.375 4.90732 122.595 4.59546 123.99 4.59546ZM123.99 7.03077C122.971 7.03077 122.146 7.36099 121.513 8.02141C120.889 8.68184 120.522 9.64954 120.412 10.9245H127.347C127.338 10.1632 127.209 9.48902 126.961 8.90198C126.723 8.31493 126.356 7.85631 125.861 7.52609C125.375 7.19588 124.751 7.03077 123.99 7.03077Z" fill="#2D2D2D"/>
<path d="M137.528 12.3279L132.437 4.88439H136.125L139.606 10.2366L143.101 4.88439H146.774L141.656 12.3279L147.036 20.1154H143.334L139.606 14.4055L135.863 20.1154H132.19L137.528 12.3279Z" fill="#2D2D2D"/>
<path d="M49.1539 30.6524V25.7973H51.0283C51.4635 25.7973 51.8192 25.866 52.0955 26.0035C52.3736 26.1394 52.5795 26.3236 52.7131 26.5559C52.8467 26.7882 52.9135 27.0474 52.9135 27.3335C52.9135 27.6195 52.8467 27.8795 52.7131 28.1134C52.5813 28.3473 52.3772 28.5338 52.1009 28.6729C51.8246 28.8104 51.4707 28.8792 51.0391 28.8792H49.6956V28.3576H51.0174C51.3154 28.3576 51.5547 28.3126 51.7352 28.2225C51.9158 28.1324 52.0467 28.0107 52.128 27.8574C52.2111 27.7025 52.2526 27.5279 52.2526 27.3335C52.2526 27.1391 52.2111 26.9652 52.128 26.8119C52.0467 26.6586 51.9149 26.5385 51.7325 26.4516C51.5502 26.3631 51.3082 26.3188 51.0066 26.3188H49.8256V30.6524H49.1539Z" fill="#2D2D2D"/>
<path d="M59.1339 28.2249C59.1339 28.7369 59.0283 29.1794 58.817 29.5524C58.6057 29.9254 58.3159 30.2131 57.9475 30.4154C57.5791 30.6177 57.1584 30.7188 56.6853 30.7188C56.2121 30.7188 55.7914 30.6177 55.423 30.4154C55.0546 30.2131 54.7648 29.9254 54.5535 29.5524C54.3422 29.1794 54.2366 28.7369 54.2366 28.2249C54.2366 27.7128 54.3422 27.2703 54.5535 26.8973C54.7648 26.5243 55.0546 26.2367 55.423 26.0344C55.7914 25.8321 56.2121 25.7309 56.6853 25.7309C57.1584 25.7309 57.5791 25.8321 57.9475 26.0344C58.3159 26.2367 58.6057 26.5243 58.817 26.8973C59.0283 27.2703 59.1339 27.7128 59.1339 28.2249ZM58.4838 28.2249C58.4838 27.8045 58.4035 27.4496 58.2427 27.1604C58.0838 26.8712 57.868 26.6523 57.5954 26.5037C57.3245 26.3552 57.0211 26.2809 56.6853 26.2809C56.3494 26.2809 56.0451 26.3552 55.7724 26.5037C55.5016 26.6523 55.2858 26.8712 55.1251 27.1604C54.9661 27.4496 54.8867 27.8045 54.8867 28.2249C54.8867 28.6453 54.9661 29.0001 55.1251 29.2893C55.2858 29.5785 55.5016 29.7974 55.7724 29.946C56.0451 30.0945 56.3494 30.1688 56.6853 30.1688C57.0211 30.1688 57.3245 30.0945 57.5954 29.946C57.868 29.7974 58.0838 29.5785 58.2427 29.2893C58.4035 29.0001 58.4838 28.6453 58.4838 28.2249Z" fill="#2D2D2D"/>
<path d="M65.185 27.3145H64.5132C64.4735 27.1454 64.404 26.9968 64.3047 26.8688C64.2072 26.7408 64.088 26.6333 63.9471 26.5464C63.8081 26.4579 63.6537 26.3915 63.4839 26.3473C63.3142 26.303 63.1372 26.2809 62.953 26.2809C62.6172 26.2809 62.3129 26.3552 62.0402 26.5037C61.7693 26.6523 61.5535 26.8712 61.3928 27.1604C61.2339 27.4496 61.1545 27.8045 61.1545 28.2249C61.1545 28.6453 61.2339 29.0001 61.3928 29.2893C61.5535 29.5785 61.7693 29.7974 62.0402 29.946C62.3129 30.0945 62.6172 30.1688 62.953 30.1688C63.1372 30.1688 63.3142 30.1467 63.4839 30.1024C63.6537 30.0582 63.8081 29.9926 63.9471 29.9057C64.088 29.8172 64.2072 29.7089 64.3047 29.5809C64.404 29.4513 64.4735 29.3027 64.5132 29.1352H65.185C65.1344 29.3833 65.0423 29.6054 64.9087 29.8014C64.7751 29.9973 64.6089 30.1641 64.4103 30.3016C64.2117 30.4375 63.9887 30.541 63.7413 30.6121C63.4957 30.6832 63.2329 30.7188 62.953 30.7188C62.4799 30.7188 62.0592 30.6177 61.6908 30.4154C61.3224 30.2131 61.0326 29.9254 60.8213 29.5524C60.61 29.1794 60.5044 28.7369 60.5044 28.2249C60.5044 27.7128 60.61 27.2703 60.8213 26.8973C61.0326 26.5243 61.3224 26.2367 61.6908 26.0344C62.0592 25.8321 62.4799 25.7309 62.953 25.7309C63.2329 25.7309 63.4957 25.7665 63.7413 25.8376C63.9887 25.9087 64.2117 26.013 64.4103 26.1505C64.6089 26.2864 64.7751 26.4524 64.9087 26.6484C65.0423 26.8428 65.1344 27.0648 65.185 27.3145Z" fill="#2D2D2D"/>
<path d="M71.1921 27.3145H70.5203C70.4806 27.1454 70.4111 26.9968 70.3117 26.8688C70.2142 26.7408 70.095 26.6333 69.9542 26.5464C69.8151 26.4579 69.6608 26.3915 69.491 26.3473C69.3213 26.303 69.1443 26.2809 68.9601 26.2809C68.6242 26.2809 68.32 26.3552 68.0473 26.5037C67.7764 26.6523 67.5606 26.8712 67.3999 27.1604C67.241 27.4496 67.1615 27.8045 67.1615 28.2249C67.1615 28.6453 67.241 29.0001 67.3999 29.2893C67.5606 29.5785 67.7764 29.7974 68.0473 29.946C68.32 30.0945 68.6242 30.1688 68.9601 30.1688C69.1443 30.1688 69.3213 30.1467 69.491 30.1024C69.6608 30.0582 69.8151 29.9926 69.9542 29.9057C70.095 29.8172 70.2142 29.7089 70.3117 29.5809C70.4111 29.4513 70.4806 29.3027 70.5203 29.1352H71.1921C71.1415 29.3833 71.0494 29.6054 70.9158 29.8014C70.7821 29.9973 70.616 30.1641 70.4174 30.3016C70.2187 30.4375 69.9957 30.541 69.7483 30.6121C69.5027 30.6832 69.24 30.7188 68.9601 30.7188C68.487 30.7188 68.0662 30.6177 67.6979 30.4154C67.3295 30.2131 67.0397 29.9254 66.8284 29.5524C66.6171 29.1794 66.5115 28.7369 66.5115 28.2249C66.5115 27.7128 66.6171 27.2703 66.8284 26.8973C67.0397 26.5243 67.3295 26.2367 67.6979 26.0344C68.0662 25.8321 68.487 25.7309 68.9601 25.7309C69.24 25.7309 69.5027 25.7665 69.7483 25.8376C69.9957 25.9087 70.2187 26.013 70.4174 26.1505C70.616 26.2864 70.7821 26.4524 70.9158 26.6484C71.0494 26.8428 71.1415 27.0648 71.1921 27.3145Z" fill="#2D2D2D"/>
<path d="M72.7352 25.7973H73.3961V29.6188H73.4503L76.484 25.7973H77.1341V30.6524H76.4624V26.8404H76.4082L73.3853 30.6524H72.7352V25.7973Z" fill="#2D2D2D"/>
<path d="M78.936 25.7973H79.5969V29.6188H79.6511L82.6848 25.7973H83.3349V30.6524H82.6631V26.8404H82.6089L79.586 30.6524H78.936V25.7973ZM81.6663 24.5835H82.2622C82.2622 24.8395 82.1611 25.0489 81.9589 25.2117C81.7566 25.3745 81.4821 25.4559 81.1354 25.4559C80.7941 25.4559 80.5224 25.3745 80.3201 25.2117C80.1197 25.0489 80.0194 24.8395 80.0194 24.5835H80.6154C80.6154 24.7068 80.6542 24.815 80.7318 24.9083C80.8113 25.0015 80.9458 25.0481 81.1354 25.0481C81.325 25.0481 81.4605 25.0015 81.5417 24.9083C81.6248 24.815 81.6663 24.7068 81.6663 24.5835Z" fill="#2D2D2D"/>
<path d="M89.6006 27.3145H88.9289C88.8891 27.1454 88.8196 26.9968 88.7203 26.8688C88.6228 26.7408 88.5036 26.6333 88.3628 26.5464C88.2237 26.4579 88.0693 26.3915 87.8996 26.3473C87.7298 26.303 87.5529 26.2809 87.3687 26.2809C87.0328 26.2809 86.7285 26.3552 86.4558 26.5037C86.185 26.6523 85.9692 26.8712 85.8085 27.1604C85.6496 27.4496 85.5701 27.8045 85.5701 28.2249C85.5701 28.6453 85.6496 29.0001 85.8085 29.2893C85.9692 29.5785 86.185 29.7974 86.4558 29.946C86.7285 30.0945 87.0328 30.1688 87.3687 30.1688C87.5529 30.1688 87.7298 30.1467 87.8996 30.1024C88.0693 30.0582 88.2237 29.9926 88.3628 29.9057C88.5036 29.8172 88.6228 29.7089 88.7203 29.5809C88.8196 29.4513 88.8891 29.3027 88.9289 29.1352H89.6006C89.5501 29.3833 89.458 29.6054 89.3243 29.8014C89.1907 29.9973 89.0246 30.1641 88.8259 30.3016C88.6273 30.4375 88.4043 30.541 88.1569 30.6121C87.9113 30.6832 87.6486 30.7188 87.3687 30.7188C86.8955 30.7188 86.4748 30.6177 86.1064 30.4154C85.738 30.2131 85.4482 29.9254 85.2369 29.5524C85.0257 29.1794 84.92 28.7369 84.92 28.2249C84.92 27.7128 85.0257 27.2703 85.2369 26.8973C85.4482 26.5243 85.738 26.2367 86.1064 26.0344C86.4748 25.8321 86.8955 25.7309 87.3687 25.7309C87.6486 25.7309 87.9113 25.7665 88.1569 25.8376C88.4043 25.9087 88.6273 26.013 88.8259 26.1505C89.0246 26.2864 89.1907 26.4524 89.3243 26.6484C89.458 26.8428 89.5501 27.0648 89.6006 27.3145Z" fill="#2D2D2D"/>
<path d="M94.405 30.6524L92.4981 28.424H91.8155V30.6524H91.1438V25.7973H91.8155V27.9024H92.1081L94.3292 25.7973H95.131L92.8882 27.9309L95.2068 30.6524H94.405Z" fill="#2D2D2D"/>
<path d="M96.5326 25.7973H97.1935V29.6188H97.2477L100.281 25.7973H100.931V30.6524H100.26V26.8404H100.206L97.1827 30.6524H96.5326V25.7973Z" fill="#2D2D2D"/>
<path d="M102.733 30.6524V25.7973H106.081V26.3188H103.405V27.9593H105.908V28.4809H103.405V30.1309H106.125V30.6524H102.733Z" fill="#2D2D2D"/>
<path d="M49.1539 35.1859H49.8127V39.0372H49.8667L52.8907 35.1859H53.5387V40.0788H52.8691V36.2371H52.8151L49.8019 40.0788H49.1539V35.1859Z" fill="#2D2D2D"/>
<path d="M55.3348 40.0788V35.1859H56.0044V37.3648H58.9529V35.1859H59.6225V40.0788H58.9529V37.8904H56.0044V40.0788H55.3348Z" fill="#2D2D2D"/>
<path d="M63.3201 35.7688H64.1949C64.6053 35.7688 64.9698 35.85 65.2884 36.0125C65.607 36.175 65.8572 36.4011 66.039 36.691C66.2208 36.9809 66.3117 37.317 66.3117 37.6992C66.3117 38.0815 66.2208 38.4184 66.039 38.7098C65.8572 39.0013 65.607 39.2291 65.2884 39.3931C64.9698 39.5572 64.6053 39.6392 64.1949 39.6392H63.3201C62.9097 39.6392 62.5452 39.558 62.2266 39.3955C61.908 39.2331 61.6578 39.0069 61.476 38.717C61.2942 38.4271 61.2033 38.0911 61.2033 37.7088C61.2033 37.3265 61.2942 36.9897 61.476 36.6982C61.6578 36.4067 61.908 36.1789 62.2266 36.0149C62.5452 35.8508 62.9097 35.7688 63.3201 35.7688ZM63.3201 36.2944C63.0069 36.2944 62.7423 36.3526 62.5263 36.4688C62.3121 36.5851 62.1492 36.7492 62.0376 36.961C61.9278 37.1728 61.8729 37.4221 61.8729 37.7088C61.8729 37.9923 61.9278 38.2392 62.0376 38.4494C62.1492 38.6597 62.3121 38.8229 62.5263 38.9392C62.7423 39.0555 63.0069 39.1136 63.3201 39.1136H64.1949C64.5081 39.1136 64.7718 39.0555 64.986 38.9392C65.202 38.8229 65.3649 38.6589 65.4747 38.447C65.5863 38.2352 65.6421 37.9859 65.6421 37.6992C65.6421 37.4157 65.5863 37.1688 65.4747 36.9586C65.3649 36.7484 65.202 36.5851 64.986 36.4688C64.7718 36.3526 64.5081 36.2944 64.1949 36.2944H63.3201ZM64.0977 35.0999V40.2795H63.4281V35.0999H64.0977Z" fill="#2D2D2D"/>
<path d="M72.5555 37.6323C72.5555 38.1484 72.4502 38.5944 72.2396 38.9703C72.029 39.3462 71.7401 39.636 71.3729 39.8399C71.0057 40.0438 70.5863 40.1457 70.1146 40.1457C69.643 40.1457 69.2236 40.0438 68.8564 39.8399C68.4892 39.636 68.2003 39.3462 67.9897 38.9703C67.7791 38.5944 67.6738 38.1484 67.6738 37.6323C67.6738 37.1163 67.7791 36.6703 67.9897 36.2944C68.2003 35.9185 68.4892 35.6287 68.8564 35.4248C69.2236 35.2209 69.643 35.119 70.1146 35.119C70.5863 35.119 71.0057 35.2209 71.3729 35.4248C71.7401 35.6287 72.029 35.9185 72.2396 36.2944C72.4502 36.6703 72.5555 37.1163 72.5555 37.6323ZM71.9075 37.6323C71.9075 37.2087 71.8274 36.8511 71.6672 36.5596C71.5088 36.2681 71.2937 36.0475 71.0219 35.8978C70.7518 35.7481 70.4494 35.6732 70.1146 35.6732C69.7798 35.6732 69.4765 35.7481 69.2047 35.8978C68.9347 36.0475 68.7196 36.2681 68.5594 36.5596C68.401 36.8511 68.3218 37.2087 68.3218 37.6323C68.3218 38.056 68.401 38.4136 68.5594 38.7051C68.7196 38.9965 68.9347 39.2171 69.2047 39.3669C69.4765 39.5166 69.7798 39.5914 70.1146 39.5914C70.4494 39.5914 70.7518 39.5166 71.0219 39.3669C71.2937 39.2171 71.5088 38.9965 71.6672 38.7051C71.8274 38.4136 71.9075 38.056 71.9075 37.6323Z" fill="#2D2D2D"/>
<path d="M74.1376 40.0788V35.1859H76.006C76.4398 35.1859 76.7944 35.2551 77.0698 35.3937C77.3471 35.5307 77.5523 35.7163 77.6855 35.9504C77.8187 36.1845 77.8853 36.4457 77.8853 36.734C77.8853 37.0223 77.8187 37.2843 77.6855 37.5201C77.5541 37.7558 77.3507 37.9437 77.0752 38.0839C76.7998 38.2225 76.447 38.2917 76.0168 38.2917H74.6776V37.7661H75.9952C76.2922 37.7661 76.5307 37.7207 76.7107 37.63C76.8907 37.5392 77.0212 37.4165 77.1022 37.262C77.185 37.1059 77.2264 36.9299 77.2264 36.734C77.2264 36.5381 77.185 36.3629 77.1022 36.2084C77.0212 36.0539 76.8898 35.9329 76.708 35.8453C76.5262 35.7561 76.285 35.7115 75.9844 35.7115H74.8072V40.0788H74.1376Z" fill="#2D2D2D"/>
<path d="M79.4201 35.1859H80.2193L82.0986 39.2474H82.1634L84.0426 35.1859H84.8418V40.0788H84.2154V36.3613H84.1614L82.4334 40.0788H81.8286L80.1005 36.3613H80.0465V40.0788H79.4201V35.1859Z" fill="#2D2D2D"/>
<path d="M86.8674 40.0788H86.1654L88.1958 35.1859H88.887L90.9175 40.0788H90.2155L88.563 35.9599H88.5198L86.8674 40.0788ZM87.1266 38.1675H89.9563V38.6931H87.1266V38.1675Z" fill="#2D2D2D"/>
<path d="M96.9331 39.515L96.8574 41.2352H96.1662V40.0788H95.7774V39.515H96.9331ZM92.235 40.0788V35.1859H92.8722V39.5341H95.7234V35.1859H96.3606V40.0788H92.235Z" fill="#2D2D2D"/>
<path d="M98.4011 35.1859H99.0599V39.0372H99.1139L102.138 35.1859H102.786V40.0788H102.116V36.2371H102.062L99.0491 40.0788H98.4011V35.1859Z" fill="#2D2D2D"/>
<path d="M109.248 37.6323C109.248 38.1484 109.142 38.5944 108.932 38.9703C108.721 39.3462 108.432 39.636 108.065 39.8399C107.698 40.0438 107.278 40.1457 106.807 40.1457C106.335 40.1457 105.916 40.0438 105.549 39.8399C105.181 39.636 104.893 39.3462 104.682 38.9703C104.471 38.5944 104.366 38.1484 104.366 37.6323C104.366 37.1163 104.471 36.6703 104.682 36.2944C104.893 35.9185 105.181 35.6287 105.549 35.4248C105.916 35.2209 106.335 35.119 106.807 35.119C107.278 35.119 107.698 35.2209 108.065 35.4248C108.432 35.6287 108.721 35.9185 108.932 36.2944C109.142 36.6703 109.248 37.1163 109.248 37.6323ZM108.6 37.6323C108.6 37.2087 108.52 36.8511 108.359 36.5596C108.201 36.2681 107.986 36.0475 107.714 35.8978C107.444 35.7481 107.142 35.6732 106.807 35.6732C106.472 35.6732 106.169 35.7481 105.897 35.8978C105.627 36.0475 105.412 36.2681 105.252 36.5596C105.093 36.8511 105.014 37.2087 105.014 37.6323C105.014 38.056 105.093 38.4136 105.252 38.7051C105.412 38.9965 105.627 39.2171 105.897 39.3669C106.169 39.5166 106.472 39.5914 106.807 39.5914C107.142 39.5914 107.444 39.5166 107.714 39.3669C107.986 39.2171 108.201 38.9965 108.359 38.7051C108.52 38.4136 108.6 38.056 108.6 37.6323Z" fill="#2D2D2D"/>
<path d="M110.83 40.0788V35.1859H111.499V37.3648H114.448V35.1859H115.118V40.0788H114.448V37.8904H111.499V40.0788H110.83Z" fill="#2D2D2D"/>
<path d="M116.914 40.0788V35.1859H117.584V37.3648H120.532V35.1859H121.202V40.0788H120.532V37.8904H117.584V40.0788H116.914Z" fill="#2D2D2D"/>
<path d="M123.496 37.2405H125.072C125.468 37.2405 125.802 37.2979 126.074 37.4125C126.348 37.5272 126.555 37.6889 126.695 37.8975C126.837 38.1062 126.908 38.3523 126.908 38.6358C126.908 38.9193 126.837 39.1694 126.695 39.386C126.555 39.6026 126.348 39.7722 126.074 39.8949C125.802 40.0175 125.468 40.0788 125.072 40.0788H122.999V35.1859H123.668V39.5628H125.072C125.324 39.5628 125.538 39.5182 125.712 39.429C125.889 39.3382 126.022 39.2219 126.112 39.0802C126.204 38.9368 126.25 38.7855 126.25 38.6262C126.25 38.3921 126.148 38.1906 125.944 38.0218C125.741 37.8513 125.45 37.7661 125.072 37.7661H123.496V37.2405ZM128.118 35.1859V40.0788H127.448V35.1859H128.118Z" fill="#2D2D2D"/>
<path d="M129.915 40.0788V35.1859H133.252V35.7115H130.584V37.3648H133.079V37.8904H130.584V39.5532H133.295V40.0788H129.915Z" fill="#2D2D2D"/>
<path d="M49.1539 45.3611V44.8112H53.2561V45.3611H51.5362V49.9301H50.8738V45.3611H49.1539Z" fill="#2D2D2D"/>
<path d="M54.7296 49.9301V44.8112H58.0306V45.3611H55.3919V47.0907H57.8597V47.6406H55.3919V49.3802H58.0733V49.9301H54.7296Z" fill="#2D2D2D"/>
<path d="M59.9962 44.8112L61.4063 46.9407H61.449L62.8592 44.8112H63.639L61.9191 47.3706L63.639 49.9301H62.8592L61.449 47.8405H61.4063L59.9962 49.9301H59.2163L60.979 47.3706L59.2163 44.8112H59.9962Z" fill="#2D2D2D"/>
<path d="M64.9523 49.9301V44.8112H65.6146V47.0907H68.531V44.8112H69.1934V49.9301H68.531V47.6406H65.6146V49.9301H64.9523Z" fill="#2D2D2D"/>
<path d="M75.5857 47.3706C75.5857 47.9105 75.4815 48.3771 75.2732 48.7703C75.0649 49.1636 74.7791 49.4668 74.4159 49.6801C74.0527 49.8934 73.6378 50 73.1713 50C72.7048 50 72.29 49.8934 71.9268 49.6801C71.5636 49.4668 71.2778 49.1636 71.0695 48.7703C70.8612 48.3771 70.757 47.9105 70.757 47.3706C70.757 46.8307 70.8612 46.3642 71.0695 45.9709C71.2778 45.5777 71.5636 45.2744 71.9268 45.0611C72.29 44.8479 72.7048 44.7412 73.1713 44.7412C73.6378 44.7412 74.0527 44.8479 74.4159 45.0611C74.7791 45.2744 75.0649 45.5777 75.2732 45.9709C75.4815 46.3642 75.5857 46.8307 75.5857 47.3706ZM74.9447 47.3706C74.9447 46.9274 74.8655 46.5533 74.707 46.2484C74.5503 45.9434 74.3376 45.7127 74.0687 45.556C73.8016 45.3994 73.5025 45.3211 73.1713 45.3211C72.8402 45.3211 72.5402 45.3994 72.2713 45.556C72.0042 45.7127 71.7915 45.9434 71.633 46.2484C71.4763 46.5533 71.398 46.9274 71.398 47.3706C71.398 47.8139 71.4763 48.1879 71.633 48.4929C71.7915 48.7978 72.0042 49.0286 72.2713 49.1852C72.5402 49.3419 72.8402 49.4202 73.1713 49.4202C73.5025 49.4202 73.8016 49.3419 74.0687 49.1852C74.3376 49.0286 74.5503 48.7978 74.707 48.4929C74.8655 48.1879 74.9447 47.8139 74.9447 47.3706Z" fill="#2D2D2D"/>
<path d="M76.6806 49.9301V49.3602H76.8408C77.0687 49.3602 77.2459 49.2919 77.3723 49.1552C77.4987 49.0186 77.5895 48.7978 77.6447 48.4929C77.7017 48.1879 77.74 47.7839 77.7595 47.2806L77.8557 44.8112H81.1888V49.9301H80.5264V45.3611H78.486L78.4005 47.4006C78.3792 47.9372 78.3266 48.3937 78.2429 48.7703C78.1593 49.1469 78.0124 49.4343 77.8023 49.6326C77.5922 49.8309 77.2859 49.9301 76.8835 49.9301H76.6806Z" fill="#2D2D2D"/>
<path d="M87.5784 47.3706C87.5784 47.9105 87.4742 48.3771 87.2659 48.7703C87.0576 49.1636 86.7718 49.4668 86.4086 49.6801C86.0454 49.8934 85.6305 50 85.164 50C84.6975 50 84.2827 49.8934 83.9195 49.6801C83.5563 49.4668 83.2705 49.1636 83.0622 48.7703C82.8539 48.3771 82.7497 47.9105 82.7497 47.3706C82.7497 46.8307 82.8539 46.3642 83.0622 45.9709C83.2705 45.5777 83.5563 45.2744 83.9195 45.0611C84.2827 44.8479 84.6975 44.7412 85.164 44.7412C85.6305 44.7412 86.0454 44.8479 86.4086 45.0611C86.7718 45.2744 87.0576 45.5777 87.2659 45.9709C87.4742 46.3642 87.5784 46.8307 87.5784 47.3706ZM86.9374 47.3706C86.9374 46.9274 86.8582 46.5533 86.6997 46.2484C86.543 45.9434 86.3303 45.7127 86.0614 45.556C85.7943 45.3994 85.4952 45.3211 85.164 45.3211C84.8329 45.3211 84.5329 45.3994 84.264 45.556C83.9969 45.7127 83.7842 45.9434 83.6257 46.2484C83.469 46.5533 83.3907 46.9274 83.3907 47.3706C83.3907 47.8139 83.469 48.1879 83.6257 48.4929C83.7842 48.7978 83.9969 49.0286 84.264 49.1852C84.5329 49.3419 84.8329 49.4202 85.164 49.4202C85.4952 49.4202 85.7943 49.3419 86.0614 49.1852C86.3303 49.0286 86.543 48.7978 86.6997 48.4929C86.8582 48.1879 86.9374 47.8139 86.9374 47.3706Z" fill="#2D2D2D"/>
<path d="M92.4444 44.8112V45.3611H89.8057V49.9301H89.1433V44.8112H92.4444Z" fill="#2D2D2D"/>
<path d="M93.9205 44.8112H94.5721V48.8403H94.6256L97.6168 44.8112H98.2577V49.9301H97.5954V45.9109H97.542L94.5615 49.9301H93.9205V44.8112Z" fill="#2D2D2D"/>
<path d="M100.034 44.8112H100.686V48.8403H100.739L103.731 44.8112H104.372V49.9301H103.709V45.9109H103.656L100.675 49.9301H100.034V44.8112Z" fill="#2D2D2D"/>
<path d="M42.6223 0.092041L21.3668 32.4904H11.3642L14.476 27.7311L14.5321 27.6606L32.6197 0.092041H42.6223Z" fill="#A51922"/>
<path d="M26.5307 3.10205L10.0096 28.2874H0L1.28544 26.3202L1.33461 26.2497L16.5281 3.10205H26.5307Z" fill="#0F2992"/>
</svg>
