<svg width="18" height="20" viewBox="0 0 18 20" fill="none" xmlns="http://www.w3.org/2000/svg">
<path d="M9.56133 5.05572V0H0V19.1114H10.6728V17.4387H10.1601C10.1414 17.405 10.1301 17.3938 10.1301 17.3825C10.1376 16.6977 10.1114 16.0129 10.1601 15.3318C10.2312 14.3514 11.1069 13.558 12.0948 13.5168C12.2108 13.5131 12.3268 13.5056 12.4915 13.4981C12.3642 12.7796 12.2632 12.0798 12.1098 11.3913C11.9713 10.7626 11.7543 10.1526 11.6046 9.52391C11.1817 7.76882 12.2482 6.0736 14.0071 5.69189C14.2017 5.65073 14.4 5.64325 14.6171 5.61705V5.05946H9.56133V5.05572ZM4.68524 2.25281C6.02121 2.24907 7.12141 3.34553 7.12516 4.6815C7.1289 6.01372 6.03243 7.11393 4.69272 7.11767C3.35676 7.12142 2.26029 6.02869 2.25655 4.68898C2.25281 3.35302 3.34553 2.25655 4.68524 2.25281ZM2.26403 8.4499H10.104V9.55011H2.26403V8.4499ZM7.48441 16.2936H2.27152V15.2008H7.48441V16.2936ZM8.43119 14.0408H2.26778V12.9593H8.43119V14.0408ZM10.1152 11.7917H2.26778V10.6952H10.1152V11.7917Z" fill="#0F2992"/>
<path d="M18 15.388V16.3235H11.2266C11.2491 15.9718 11.2304 15.635 11.2977 15.3132C11.3838 14.9015 11.7767 14.6208 12.2295 14.6208C13.8275 14.6134 15.4254 14.6134 17.0233 14.6208C17.4911 14.6246 17.8129 14.8828 17.9663 15.3319C17.9701 15.3506 17.9888 15.3693 18 15.388Z" fill="#0F2992"/>
<path d="M14.6807 3.93306H10.6802V0H10.9422C10.9871 0.0486487 11.032 0.104782 11.0769 0.149688C12.2258 1.29854 13.3709 2.44366 14.516 3.59626C14.5908 3.6711 14.617 3.7946 14.6807 3.93306Z" fill="#0F2992"/>
<path d="M16.5854 9.06723C16.5031 9.62107 16.2674 10.1487 16.1551 10.7026C15.9755 11.582 15.8333 12.4726 15.6873 13.3595C15.6686 13.4681 15.6424 13.5092 15.5301 13.5092C15.227 13.5055 14.9202 13.5092 14.617 13.5092C14.3251 13.5092 14.0333 13.5055 13.7414 13.513C13.6254 13.5167 13.5767 13.483 13.5655 13.3595C13.4457 12.0423 13.1613 10.7624 12.7572 9.50507C12.3867 8.35621 12.9143 7.22232 13.9846 6.85933C15.3954 6.37658 16.8212 7.52918 16.5854 9.06723Z" fill="#0F2992"/>
<path d="M17.4274 17.4463H11.8179V19.1153H17.4274V17.4463Z" fill="#0F2992"/>
<path d="M6.00625 4.68918C6.00625 5.40768 5.40376 6.01018 4.68525 6.00644C3.96675 6.00644 3.36426 5.4002 3.368 4.68544C3.368 3.96693 3.97424 3.36444 4.689 3.36818C5.4075 3.36818 6.00999 3.97068 6.00625 4.68918Z" fill="#0F2992"/>
</svg>
