<svg width="38" height="38" viewBox="0 0 38 38" fill="none" xmlns="http://www.w3.org/2000/svg">
<path d="M33.9154 7.25516C31.0011 3.54496 27.1947 1.18054 22.5557 0.347793C16.3109 -0.774932 10.7723 0.82365 6.07384 5.09893C3.0109 7.88716 1.13002 11.3743 0.334544 15.4414C0.208161 16.0808 0.163555 16.7351 0.0743432 17.382C0.0594746 17.501 0.0297373 17.6199 0 17.7389V20.1851C0.0966461 20.8914 0.178424 21.5978 0.297373 22.3041C0.765735 25.018 1.79167 27.5088 3.36775 29.7617C3.56104 30.0368 3.57591 30.2673 3.47183 30.5796C2.7284 32.7581 1.99983 34.9441 1.24153 37.1896C1.47943 37.1226 1.68016 37.0706 1.86601 37.0111C3.99223 36.3345 6.11101 35.6505 8.22979 34.959C8.46769 34.8846 8.63868 34.9144 8.84684 35.0482C11.1143 36.4981 13.5825 37.4052 16.2366 37.8067C16.7123 37.881 17.1881 37.9405 17.6639 38H20.3329C20.8384 37.9256 21.3514 37.8662 21.8643 37.7844C26.4736 37.0557 30.3172 34.9218 33.3727 31.4124C35.8334 28.5944 37.3352 25.3154 37.8184 21.6052C38.5098 16.2964 37.2311 11.471 33.9154 7.25516ZM26.4959 29.4569C25.522 29.7543 24.5333 29.6502 23.5668 29.3974C20.712 28.6464 18.0282 27.5534 15.6938 25.6946C13.4859 23.9399 11.6719 21.8283 10.0735 19.5159C9.35237 18.475 8.72789 17.3894 8.34874 16.17C7.58301 13.6644 7.93242 11.3892 9.82074 9.46343C10.3783 8.89835 11.1886 8.63812 12.3335 8.71247C13.0472 8.58607 13.4487 9.06193 13.7312 9.76828C14.2516 11.0695 14.7794 12.3781 15.3593 13.6569C15.6567 14.3112 15.5377 14.8466 15.0991 15.3596C14.72 15.7983 14.3259 16.2295 13.9542 16.6682C13.6048 17.0846 13.5676 17.3448 13.8278 17.7761C15.5749 20.6907 17.9167 22.9287 21.0912 24.2299C22.013 24.6091 22.407 24.5124 23.0167 23.7243C23.3958 23.2336 23.7526 22.7354 24.1244 22.2372C24.5779 21.6275 25.0091 21.4937 25.7004 21.8134C27.1278 22.4826 28.5478 23.1815 29.9677 23.8581C30.3097 24.0217 30.451 24.2745 30.4435 24.6537C30.3841 27.204 29.3581 28.587 26.4959 29.4569Z" fill="#0F2992"/>
</svg>
