<svg width="38" height="38" viewBox="0 0 38 38" fill="none" xmlns="http://www.w3.org/2000/svg">
<path fill-rule="evenodd" clip-rule="evenodd" d="M19 38C29.4934 38 38 29.4934 38 19C38 8.50659 29.4934 0 19 0C8.50659 0 0 8.50659 0 19C0 29.4934 8.50659 38 19 38ZM28.086 9.66813C28.3357 9.57387 28.5724 9.55747 28.7876 9.73371C29.0028 9.90994 29.0329 10.1313 28.9727 10.3895C28.9056 10.6671 28.8465 10.9467 28.7872 11.2268C28.7589 11.3602 28.7307 11.4937 28.7015 11.6272C28.6172 12.0149 28.5329 12.4028 28.4485 12.7906C27.956 15.0555 27.463 17.3224 26.967 19.5863C26.7721 20.4808 26.5767 21.3747 26.3813 22.2685C26.0243 23.9016 25.6674 25.5341 25.3142 27.1684C25.2496 27.4635 25.1334 27.7012 24.8364 27.8364H24.5351C24.484 27.805 24.4323 27.7755 24.3809 27.7461C24.2981 27.6987 24.2162 27.6518 24.1391 27.5987C22.5211 26.4842 20.9074 25.3696 19.2936 24.2551L19.2927 24.2544C18.8881 23.9757 18.5265 23.9839 18.1391 24.2831C17.5212 24.7584 16.9053 25.2356 16.2886 25.7134C16.0119 25.9278 15.735 26.1424 15.4577 26.3569C14.9971 26.7094 14.5624 26.5823 14.3859 26.0454C14.2299 25.5689 14.0736 25.0924 13.9172 24.6159C13.4484 23.1866 12.9795 21.7574 12.5179 20.3281C12.4706 20.1847 12.3931 20.1191 12.2554 20.0699C11.6228 19.8464 10.991 19.6221 10.3596 19.398C9.44002 19.0716 8.5213 18.7455 7.60258 18.4224C7.34433 18.3322 7.12482 18.2174 7 17.9756V17.6478C7.11191 17.4059 7.32281 17.2871 7.57245 17.1969C12.6421 15.3406 17.7075 13.4801 22.7728 11.6197L22.7747 11.619C23.0204 11.529 23.2662 11.4391 23.512 11.3491C25.0362 10.7914 26.5627 10.2328 28.086 9.66813ZM24.1353 13.711C24.163 13.691 24.1908 13.6709 24.1994 13.6436C24.2209 13.5739 24.251 13.4756 24.2209 13.4305C24.1908 13.3895 24.0789 13.3854 24.0057 13.3895C23.9694 13.3924 23.9353 13.4175 23.9018 13.4421C23.8876 13.4525 23.8735 13.4629 23.8594 13.4715C22.52 14.2586 21.1806 15.0435 19.8397 15.8294C19.3233 16.1321 18.8067 16.4348 18.2898 16.7379C16.9175 17.5408 15.5495 18.3436 14.1815 19.1465L14.1793 19.1478C13.7059 19.4265 13.5552 19.8035 13.7016 20.3158C13.7231 20.3916 13.7457 20.4664 13.7683 20.5412C13.7909 20.616 13.8135 20.6908 13.835 20.7667C14.1318 21.7621 14.4287 22.7535 14.7255 23.7448L14.726 23.7462C14.7647 23.8774 14.812 23.9921 14.9842 23.9962C15.1736 23.9962 15.2295 23.8733 15.2511 23.7298L15.2607 23.6623C15.335 23.1441 15.4087 22.6294 15.4706 22.1109C15.5308 21.6027 15.7073 21.156 16.1162 20.7953C18.1269 19.023 20.1327 17.2483 22.1392 15.4731C22.7914 14.8961 23.4436 14.319 24.0961 13.742C24.1076 13.731 24.1214 13.721 24.1353 13.711Z" fill="white"/>
</svg>
