<svg width="38" height="38" viewBox="0 0 38 38" fill="none" xmlns="http://www.w3.org/2000/svg">
<path fill-rule="evenodd" clip-rule="evenodd" d="M19 38C29.4934 38 38 29.4934 38 19C38 8.50659 29.4934 0 19 0C8.50659 0 0 8.50659 0 19C0 29.4934 8.50659 38 19 38ZM28.086 9.66813C28.3357 9.57387 28.5724 9.55747 28.7876 9.7337C29.0028 9.90993 29.0329 10.1312 28.9727 10.3895C28.9056 10.6671 28.8465 10.9467 28.7872 11.2268C28.7589 11.3602 28.7307 11.4937 28.7015 11.6272L28.4487 12.7897C27.9561 15.0548 27.4631 17.3221 26.967 19.5863C26.772 20.481 26.5766 21.3752 26.3811 22.2693C26.0242 23.9021 25.6674 25.5344 25.3142 27.1684C25.2496 27.4635 25.1334 27.7012 24.8364 27.8364H24.5351C24.484 27.805 24.4323 27.7754 24.3809 27.746C24.2981 27.6987 24.2161 27.6518 24.1391 27.5987C22.5208 26.4839 20.9067 25.3692 19.2927 24.2544C18.8881 23.9757 18.5265 23.9839 18.1391 24.2831C17.521 24.7585 16.9049 25.2359 16.288 25.7138C16.0115 25.9281 15.7348 26.1425 15.4577 26.3569C14.9971 26.7094 14.5624 26.5823 14.3859 26.0454C14.2298 25.5688 14.0735 25.0922 13.9171 24.6155C13.4483 23.1864 12.9795 21.7573 12.5179 20.3281C12.4706 20.1847 12.3931 20.1191 12.2554 20.0699C11.6234 19.8466 10.9922 19.6225 10.3614 19.3986C9.44119 19.072 8.52189 18.7458 7.60258 18.4224C7.34433 18.3322 7.12482 18.2174 7 17.9756V17.6478C7.11191 17.4059 7.32281 17.2871 7.57245 17.1969C12.6372 15.3424 17.6976 13.4837 22.7581 11.6251L22.7747 11.619C23.0203 11.5291 23.2659 11.4392 23.5116 11.3493C25.036 10.7915 26.5626 10.2328 28.086 9.66813ZM24.1353 13.711C24.163 13.691 24.1908 13.6709 24.1994 13.6436C24.2209 13.5739 24.251 13.4756 24.2209 13.4305C24.1908 13.3895 24.0789 13.3854 24.0057 13.3895C23.9694 13.3924 23.9353 13.4175 23.9018 13.4421C23.8876 13.4525 23.8735 13.4629 23.8594 13.4715C22.5192 14.2591 21.179 15.0445 19.8371 15.8309C19.3216 16.1331 18.8059 16.4353 18.2898 16.7379C16.9168 17.5412 15.548 18.3445 14.1793 19.1478C13.7059 19.4265 13.5552 19.8035 13.7016 20.3158C13.7231 20.3916 13.7457 20.4664 13.7683 20.5412C13.7909 20.616 13.8135 20.6908 13.835 20.7667C14.132 21.7626 14.429 22.7544 14.726 23.7462C14.7647 23.8773 14.812 23.9921 14.9842 23.9962C15.1736 23.9962 15.2295 23.8733 15.2511 23.7298L15.2607 23.6623C15.335 23.1441 15.4087 22.6294 15.4706 22.1109C15.5308 21.6027 15.7073 21.156 16.1162 20.7953C18.1268 19.0231 20.1326 17.2485 22.139 15.4733C22.7912 14.8962 23.4435 14.3191 24.0961 13.742C24.1076 13.731 24.1214 13.721 24.1353 13.711Z" fill="#0F2992"/>
</svg>
