<svg width="38" height="38" viewBox="0 0 38 38" fill="none" xmlns="http://www.w3.org/2000/svg">
<path d="M19 0C8.50725 0 0 8.50725 0 19C0 29.4928 8.50725 38 19 38C29.4928 38 38 29.4928 38 19C38 8.50725 29.4928 0 19 0ZM29.0716 25.2811L26.1139 25.3223C26.1139 25.3223 25.4758 25.4473 24.6414 24.871C23.5347 24.111 22.4913 22.1334 21.6774 22.3899C20.8525 22.6528 20.8778 24.4324 20.8778 24.4324C20.8778 24.4324 20.8842 24.7459 20.6957 24.9502C20.4915 25.1702 20.0909 25.1481 20.0909 25.1481H18.7657C18.7657 25.1481 15.8428 25.3903 13.2668 22.705C10.4611 19.7774 7.98158 13.9998 7.98158 13.9998C7.98158 13.9998 7.83592 13.6357 7.99108 13.4488C8.16683 13.243 8.64025 13.2367 8.64025 13.2367L11.8069 13.2208C11.8069 13.2208 12.1046 13.2731 12.3199 13.4314C12.4957 13.5612 12.5954 13.8051 12.5954 13.8051C12.5954 13.8051 13.1068 15.1018 13.7861 16.2767C15.1097 18.5662 15.7241 19.0681 16.1737 18.8227C16.8293 18.4648 16.6329 15.5863 16.6329 15.5863C16.6329 15.5863 16.6456 14.5413 16.3036 14.0758C16.0376 13.7133 15.5373 13.6056 15.3188 13.5787C15.1398 13.5549 15.4312 13.1401 15.8112 12.9532C16.3812 12.6746 17.3882 12.6588 18.5772 12.6698C19.5035 12.6793 19.7711 12.7363 20.1321 12.825C21.2246 13.0894 20.8541 14.1091 20.8541 16.5553C20.8541 17.3391 20.7132 18.4411 21.2768 18.8037C21.5207 18.9604 22.1144 18.8274 23.5948 16.3036C24.2994 15.1066 24.8267 13.7006 24.8267 13.7006C24.8267 13.7006 24.9422 13.4504 25.1212 13.3428C25.3048 13.2319 25.5518 13.2668 25.5518 13.2668L28.8848 13.2462C28.8848 13.2462 29.8854 13.1258 30.0485 13.5802C30.2195 14.0553 29.6748 15.1652 28.3132 16.9813C26.0775 19.9643 25.8289 19.6872 27.6862 21.413C29.4595 23.0613 29.8253 23.8624 29.887 23.9638C30.6201 25.1845 29.0716 25.2811 29.0716 25.2811Z" fill="#0F2992"/>
</svg>
