<svg width="123" height="123" viewBox="0 0 123 123" fill="none" xmlns="http://www.w3.org/2000/svg">
<path d="M61.5 0C95.4671 0 123 27.5329 123 61.5C123 95.4671 95.4671 123 61.5 123C27.5329 123 0 95.465 0 61.5C0 27.535 27.5356 0 61.5 0Z" fill="#8F9BCC"/>
<path d="M86.6758 81.3876C99.5905 74.1435 104.379 57.8629 97.3483 44.7561C90.3179 31.6494 74.108 26.6259 60.9273 33.3739C60.7702 33.4539 60.6146 33.5371 60.4585 33.6187C60.3024 33.7002 60.1485 33.7867 59.9952 33.8737C40.2111 44.6658 27.5536 63.4988 23.9098 84.1307C43.1125 92.513 65.8029 92.3929 85.7453 81.8857C85.9015 81.8038 86.0573 81.7211 86.2124 81.6377C86.3676 81.5543 86.5221 81.4709 86.6758 81.3876ZM58.4969 65.5855C54.102 57.3897 57.184 47.1828 65.3793 42.7885C73.5745 38.3942 83.7825 41.4751 88.1768 49.6714C92.5711 57.8678 89.4908 68.0741 81.2939 72.469C73.097 76.8638 62.8917 73.7824 58.4969 65.5855Z" fill="white"/>
<path d="M80.6971 64.9845C84.7611 60.9205 84.7611 54.3315 80.6971 50.2675C76.6331 46.2035 70.044 46.2035 65.98 50.2675C61.916 54.3315 61.916 60.9205 65.98 64.9845C70.044 69.0485 76.6331 69.0485 80.6971 64.9845Z" fill="white"/>
</svg>
