<svg xmlns="http://www.w3.org/2000/svg" width="332" height="310" style=""><rect id="backgroundrect" width="100%" height="100%" x="0" y="0" fill="none" stroke="none"/>

 <g style="">
  <title>background</title>
  <rect fill="none" id="canvas_background" height="312" width="556" y="-1" x="-1"/>
 </g>
 <g style="" class="currentLayer">
  <title>Layer 1</title>
  <g id="svg_1" opacity="0.7" class="">
   <path id="svg_2" fill="#0F2992" d="m233.11955369140622,197.7395517692566 c-11.476,0 -21.792,-3.825 -28.863,-11.36 l3.709,-3.8251 c6.955,6.8391 15.417,9.7371 24.922,9.7371 c20.749,0 36.397,-15.301 36.397,-35.7019 c0,-20.4009 -15.648,-35.7015 -36.397,-35.7015 c-9.505,0 -17.967,2.7819000000000003 -24.922,9.620800000000001 l-3.709,-3.8251 c7.071,-7.5344999999999995 17.387,-11.2437 28.863,-11.2437 c24.11,0 42.077,17.503 42.077,41.1495 c0,23.6465 -17.967,41.1499 -42.077,41.1499 z"/>
   <path id="svg_3" fill="#0F2992" d="m140.55325369140624,137.44895176925658 c-14.5529,3.4988 -29.4058,-4.7646 -34.0974,-18.9916 c14.553,-3.4988 29.4058,4.7646 34.0974,18.9916 z" clip-rule="evenodd" fill-rule="evenodd"/>
   <path id="svg_4" fill="#0F2992" d="m68.53905369140625,138.64685176925659 c5.7377,-9.9381 14.2086,-16.9597 24.269,-19.316 l1.458,5.1249 c-9.4001,2.6036 -16.1406,8.4828 -20.8931,16.7143 c-10.3743,17.9689 -4.9477,39.1711 12.72,49.3715 c17.6677,10.201 38.7427,4.299 49.117,-13.6699 c4.7525,-8.2316 6.5741,-16.9506 4.1288,-26.3932 l5.1674,-1.2997 c2.9896000000000003,9.8907 1.0437,20.6795 -4.6941000000000015,30.6176 c-12.055,20.8802 -36.1965,27.688200000000002 -56.6749,15.8652 c-20.4785,-11.824 -26.65323,-36.1347 -14.5981,-57.0147 z"/>
   <path id="svg_5" fill="#0F2992" d="m233.26155369140628,225.6925517692566 c-18.894,0 -37.014,-7.506 -50.373,-20.866 c-13.36,-13.359 -20.866,-31.4793 -20.866,-50.3731 c0,-18.8937 7.506,-37.0136 20.866,-50.3735 c13.359,-13.35989 31.479,-20.8654 50.373,-20.8654 l0,5.4275 c-17.454,0 -34.194,6.9337 -46.536,19.2757 c-12.342,12.3421 -19.275,29.0815 -19.275,46.5357 c0,17.4543 6.933,34.1941 19.275,46.5361 c12.342,12.342 29.082,19.275 46.536,19.275 l0,5.428 z"/>
  </g>
 </g>
</svg>